<svg version="1.1" id="Layer_1" xmlns="http://www.w3.org/2000/svg" xmlns:xlink="http://www.w3.org/1999/xlink" x="0px" y="0px"
	 width="100%" viewBox="0 0 2500 2483" enable-background="new 0 0 2500 2483" xml:space="preserve">
<path fill="#000000" opacity="1.000000" stroke="none" 
	d="
M1316.000000,2486.000000 
	C877.333313,2486.000000 439.666656,2486.000000 2.000000,2486.000000 
	C2.000000,1658.000000 2.000000,830.000000 2.000000,2.000000 
	C835.333313,2.000000 1668.666626,2.000000 2502.000000,2.000000 
	C2502.000000,830.000000 2502.000000,1658.000000 2502.000000,2486.000000 
	C2107.000000,2486.000000 1712.000000,2486.000000 1316.000000,2486.000000 
M2131.864990,751.005737 
	C2131.232666,750.747925 2130.600342,750.490112 2128.984375,749.276672 
	C2121.047119,744.607483 2113.109863,739.938232 2105.215088,735.294006 
	C2105.882080,732.788269 2106.222900,731.172791 2106.739502,729.615601 
	C2117.183838,698.143188 2108.388184,670.856689 2081.700684,651.603821 
	C2079.647949,650.122986 2078.112305,647.925049 2077.347656,644.863220 
	C2083.006592,631.469177 2088.665527,618.075195 2094.225342,604.915710 
	C2096.471436,604.915710 2097.775391,604.834778 2099.066406,604.927917 
	C2118.608154,606.337402 2134.293701,594.768372 2137.483887,576.401001 
	C2138.899170,568.253357 2137.301270,560.587158 2133.281006,553.334778 
	C2128.628418,544.942200 2121.390137,540.218567 2110.939697,537.089050 
	C2105.241455,537.376648 2099.543457,537.664246 2092.423828,538.172363 
	C2088.652832,540.130859 2084.412109,541.514648 2081.192627,544.147461 
	C2067.475586,555.365234 2064.822510,574.348572 2074.599121,589.754700 
	C2076.915527,593.405518 2079.553467,596.393188 2077.322021,601.376648 
	C2071.245850,614.945374 2065.641113,628.725037 2058.402344,642.252869 
	C2056.948975,642.231812 2055.495850,642.210754 2052.583984,641.744812 
	C2047.036743,641.927002 2041.489624,642.109192 2034.552612,642.155640 
	C2033.238037,642.538330 2031.923340,642.920959 2029.163696,643.408630 
	C2024.495850,645.122620 2019.605103,646.398438 2015.203491,648.636169 
	C2003.918213,654.373474 1995.460693,663.136292 1989.237183,674.164429 
	C1985.521851,680.747803 1984.757080,681.099487 1977.751587,677.656555 
	C1967.478638,672.607666 1957.431396,667.099670 1947.360474,661.825256 
	C1948.187256,657.539917 1949.299927,653.552307 1949.656860,649.498230 
	C1950.170898,643.659302 1950.135620,637.772034 1950.508667,630.260254 
	C1949.192017,624.197083 1948.479248,617.924011 1946.457275,612.106018 
	C1935.932983,581.822632 1907.291260,561.556763 1874.692627,560.912720 
	C1842.496460,560.276672 1812.572998,580.754761 1801.201416,611.206604 
	C1789.734741,641.912598 1798.159302,675.319336 1822.814697,696.496155 
	C1824.523804,697.964111 1826.762695,698.815308 1828.418945,699.761169 
	C1824.726562,705.723999 1822.292114,709.655579 1818.766113,714.314941 
	C1817.104370,716.851196 1815.442627,719.387390 1812.725464,722.595337 
	C1811.142090,725.025696 1809.558594,727.456116 1806.864868,730.640442 
	C1786.236694,758.826721 1765.608521,787.013000 1744.631714,815.675842 
	C1722.754028,806.438965 1701.421021,805.724060 1680.573608,816.819824 
	C1659.368896,828.105835 1648.407227,846.816040 1643.768799,870.423035 
	C1610.060303,870.423035 1577.112183,870.423035 1543.313477,869.033142 
	C1543.013306,867.401733 1542.638306,865.780090 1542.423584,864.137512 
	C1536.919434,822.021301 1502.929321,792.521667 1460.530640,794.198853 
	C1449.462280,794.636719 1438.517334,798.198486 1426.812866,800.461426 
	C1421.179199,790.074646 1415.056519,778.786072 1408.506470,766.120667 
	C1397.907593,746.195801 1387.308716,726.270996 1377.356445,707.561768 
	C1382.426636,701.891113 1386.742432,697.300171 1390.798584,692.490540 
	C1423.261841,653.998047 1409.535278,603.462952 1381.446899,582.506287 
	C1375.470215,578.435120 1369.493530,574.363953 1362.868164,569.850952 
	C1364.138916,566.140320 1365.330688,562.405151 1366.690186,558.731934 
	C1375.666504,534.478577 1384.678955,510.238495 1394.469604,484.734161 
	C1401.283081,465.731171 1408.009399,446.696045 1414.988647,427.754181 
	C1416.277466,424.256134 1418.589355,421.135132 1420.365479,417.954041 
	C1443.322632,423.725311 1463.050293,419.644440 1480.284912,404.958038 
	C1483.180542,402.490662 1485.669434,401.525543 1489.021606,404.198975 
	C1497.809570,411.207733 1506.745483,418.031158 1514.931274,424.391449 
	C1514.044922,431.647034 1513.290405,437.822113 1512.257446,445.578888 
	C1512.644287,448.200195 1512.803101,450.879669 1513.454834,453.433350 
	C1517.868286,470.726044 1532.503174,482.969086 1549.868896,484.027985 
	C1567.708862,485.115784 1583.704834,475.274200 1590.435181,459.069275 
	C1597.207397,442.763489 1592.835815,424.460236 1579.742432,412.607697 
	C1574.070679,407.473358 1567.195801,405.627686 1558.744263,403.182617 
	C1548.728271,401.107025 1539.531250,403.540649 1531.122437,408.835052 
	C1526.709106,411.613892 1523.213989,411.120850 1519.444458,407.969452 
	C1513.701782,403.168457 1507.613403,398.760925 1502.084106,393.733032 
	C1499.331543,391.230072 1496.515991,388.604767 1498.190308,383.506683 
	C1501.435181,373.627411 1503.699341,363.426056 1506.671509,352.221375 
	C1532.750732,345.179138 1559.505615,337.954407 1586.405273,330.690582 
	C1588.259766,335.045990 1589.416870,338.142670 1590.862671,341.098114 
	C1600.380249,360.552734 1623.468750,369.026367 1643.448608,360.455750 
	C1663.042969,352.050507 1672.785400,330.099213 1665.905273,309.856903 
	C1658.932251,289.341309 1637.083618,277.821686 1616.283447,283.737610 
	C1603.987061,287.234924 1595.338867,295.011993 1590.156128,306.600189 
	C1588.626465,310.020569 1587.313110,312.978088 1583.047241,314.091339 
	C1556.026978,321.142639 1529.071655,328.442871 1501.727783,334.307251 
	C1488.767334,295.953461 1444.062500,278.271057 1407.902832,298.632782 
	C1406.554321,299.392151 1404.925293,299.653442 1403.036987,300.275299 
	C1396.445190,287.934631 1390.049683,275.961426 1383.389404,262.639801 
	C1376.674683,249.840042 1369.959961,237.040268 1363.350952,224.441956 
	C1366.160156,221.095123 1368.165405,218.892426 1369.963501,216.532135 
	C1378.438721,205.407516 1380.600830,192.898621 1376.810181,179.663757 
	C1371.132568,159.841019 1350.923340,147.505554 1331.105591,151.201233 
	C1309.614136,155.209015 1295.291382,173.738998 1297.246948,195.005035 
	C1299.183228,216.057938 1316.167603,231.806183 1337.294189,232.108047 
	C1341.205933,232.163940 1345.119141,232.116028 1348.934692,232.116028 
	C1351.553345,237.176285 1353.818115,241.621643 1356.144287,246.034653 
	C1362.653076,258.383057 1369.187256,270.718140 1375.917358,284.417664 
	C1380.555420,293.912170 1385.193359,303.406677 1389.765869,312.767059 
	C1378.195068,328.780487 1372.486938,345.629364 1375.372314,364.900726 
	C1378.298706,384.447693 1388.909546,399.123596 1404.110718,410.187988 
	C1403.165649,414.128998 1402.472900,417.017853 1400.862305,420.962067 
	C1392.777954,442.645477 1384.693726,464.328857 1375.864868,487.314392 
	C1367.189941,510.142761 1358.579468,532.996033 1349.773560,555.773865 
	C1348.381836,559.374268 1346.107788,562.633606 1342.741211,565.566467 
	C1335.184326,565.719177 1327.627563,565.871948 1318.534912,566.434692 
	C1312.895508,567.924011 1306.981689,568.764343 1301.663696,571.013611 
	C1277.120361,581.394470 1261.760620,599.750427 1256.239990,625.860962 
	C1255.305664,630.280151 1252.955200,631.889465 1248.147583,633.055908 
	C1245.576050,633.413635 1243.004517,633.771362 1239.195312,633.990173 
	C1238.790161,634.081116 1238.385132,634.171997 1236.200195,634.045288 
	C1229.477173,634.701538 1222.754272,635.357727 1214.209595,636.702698 
	C1213.702026,637.107300 1213.194458,637.511963 1212.789307,637.806763 
	C1212.789307,637.806763 1212.974121,637.889160 1211.352905,637.623352 
	C1210.189819,635.209717 1208.723022,632.892639 1207.919067,630.364807 
	C1205.276001,622.054443 1202.872925,613.667725 1200.203369,603.925781 
	C1182.984253,568.463135 1154.531738,550.241211 1115.246948,550.001648 
	C1075.371338,549.758423 1039.606934,577.316223 1028.403687,615.794312 
	C1017.101074,654.613831 1032.269653,695.777466 1067.060059,718.801941 
	C1069.344849,720.572327 1071.629639,722.342773 1074.287964,724.402649 
	C1062.083130,752.426636 1050.432129,780.217529 1038.111084,807.484924 
	C975.225403,789.778931 906.900940,825.453430 894.097534,900.046082 
	C884.030762,899.073303 873.851318,898.065308 863.666809,897.110962 
	C845.108948,895.372009 826.548218,893.664917 806.709351,891.383179 
	C804.389587,891.162781 802.069824,890.942383 798.244751,890.307312 
	C796.160400,890.225098 794.075989,890.142822 791.112000,888.700867 
	C790.253479,882.453918 790.002197,876.049622 788.431885,869.987061 
	C781.388916,842.796021 755.945435,824.622437 727.825684,826.280151 
	C699.392273,827.956421 676.235657,850.187866 672.671814,879.230469 
	C669.382324,906.037048 686.542358,932.776367 712.680054,941.573120 
	C739.387085,950.561340 768.508240,939.535278 782.601562,915.093201 
	C784.238708,912.253784 785.847351,909.397888 787.532715,906.438232 
	C798.514893,907.353638 809.103088,908.236206 821.437500,909.611267 
	C845.432251,912.122559 869.426941,914.633850 893.745911,917.179077 
	C896.530029,933.965942 898.263245,950.247864 907.801086,965.603455 
	C940.792297,1020.159302 988.928345,1033.003906 1047.899536,1015.900757 
	C1056.984741,1031.007812 1065.882690,1045.803589 1075.296021,1061.940308 
	C1081.786255,1073.418701 1088.276489,1084.896973 1094.787598,1096.412231 
	C1092.483765,1098.937866 1090.714233,1100.895752 1088.925415,1102.836060 
	C1068.235840,1125.277100 1059.282349,1151.754761 1064.182251,1181.840942 
	C1069.500488,1214.494873 1086.914917,1238.790771 1118.864258,1253.325195 
	C1123.283081,1255.237793 1127.702026,1257.150391 1132.546753,1259.247314 
	C1122.782349,1284.707764 1113.363037,1309.268311 1102.492065,1334.036987 
	C1101.030273,1334.129517 1099.568359,1334.222046 1096.366699,1333.903320 
	C1092.216919,1334.032837 1088.067139,1334.162354 1082.539185,1334.125366 
	C1080.357300,1334.743408 1078.175293,1335.361572 1074.912354,1335.967896 
	C1074.577271,1336.100342 1074.242065,1336.232666 1072.786621,1336.330811 
	C1071.832397,1336.869507 1070.878174,1337.408325 1068.500244,1338.055908 
	C1040.003052,1350.880127 1026.564331,1378.891357 1034.947998,1409.922363 
	C1045.759399,1440.954590 1074.726807,1457.294067 1105.769165,1449.869873 
	C1128.611938,1444.406616 1146.953491,1424.157104 1149.956909,1401.085693 
	C1153.220459,1376.015625 1141.785889,1352.932007 1120.224976,1340.186523 
	C1120.869751,1337.659424 1121.258179,1335.032104 1122.199829,1332.620972 
	C1129.640503,1313.568726 1138.257202,1294.887695 1144.266113,1275.400024 
	C1147.458740,1265.045776 1152.017944,1260.294312 1163.638428,1261.061035 
	C1165.699219,1260.686401 1167.759888,1260.311768 1171.431396,1260.083496 
	C1194.592407,1256.376465 1212.825195,1244.116333 1228.142212,1227.038330 
	C1241.311523,1212.354858 1248.081787,1194.961060 1248.601685,1174.511353 
	C1256.725464,1173.255249 1264.543457,1172.046265 1273.673584,1171.063599 
	C1276.269043,1170.655151 1278.864502,1170.246704 1283.242920,1169.989746 
	C1290.415283,1169.346191 1297.587646,1168.702515 1305.150269,1168.023926 
	C1312.561279,1187.539917 1322.218018,1204.922974 1340.641479,1217.493286 
	C1364.943237,1234.650391 1391.583496,1239.932983 1420.275024,1231.996094 
	C1427.697632,1229.942871 1432.300171,1231.138306 1437.712158,1236.512329 
	C1454.946899,1253.626099 1472.802124,1270.114990 1491.185425,1288.005005 
	C1498.444946,1295.331299 1505.203491,1303.266968 1513.129517,1309.782593 
	C1519.009399,1314.615967 1520.660400,1319.251831 1519.773071,1326.775879 
	C1516.809204,1351.909912 1529.388184,1373.408325 1552.354004,1384.347412 
	C1554.707764,1385.468628 1557.047607,1386.619263 1560.069580,1388.083618 
	C1559.186523,1411.057373 1558.309937,1433.862061 1557.452148,1456.181274 
	C1532.140137,1466.115112 1521.270508,1481.793335 1524.150146,1503.039185 
	C1526.608765,1521.178955 1541.856445,1535.814819 1560.322021,1537.759888 
	C1578.740723,1539.700073 1596.408447,1528.666748 1602.843018,1511.211670 
	C1606.065552,1502.470215 1606.345947,1493.639404 1603.549316,1484.752686 
	C1598.992065,1470.270386 1588.130981,1462.039795 1574.552734,1457.004517 
	C1575.344238,1434.245239 1576.103882,1412.403198 1576.891602,1389.754883 
	C1594.728516,1388.406982 1609.326538,1382.116455 1620.310913,1368.677368 
	C1631.548584,1354.928223 1634.230957,1338.915039 1632.467651,1321.313965 
	C1643.842407,1316.695312 1654.796509,1312.247437 1665.619751,1307.852539 
	C1667.606689,1310.283936 1668.813843,1311.866333 1670.128540,1313.353760 
	C1686.210327,1331.549438 1711.272461,1335.963745 1731.768433,1324.229614 
	C1752.252563,1312.502441 1761.381958,1288.667603 1753.395020,1265.614014 
	C1751.303345,1259.576172 1752.420654,1255.954224 1756.468384,1251.587158 
	C1782.957031,1223.008911 1809.218262,1194.220093 1835.587158,1165.530518 
	C1837.352783,1163.609497 1839.393311,1161.940918 1841.423706,1160.045044 
	C1860.729126,1166.510742 1879.087891,1165.322388 1896.293701,1154.451660 
	C1913.846436,1143.361816 1922.090698,1126.481567 1924.748047,1105.978149 
	C1936.711304,1105.334106 1947.975220,1104.779907 1959.231812,1104.105103 
	C1968.183472,1103.568604 1977.126343,1102.884521 1987.688599,1102.579712 
	C2001.340454,1101.856323 2014.992310,1101.132812 2028.980347,1100.645142 
	C2028.980347,1100.645142 2029.280029,1100.364746 2030.956177,1100.647583 
	C2037.895020,1100.647583 2044.833984,1100.647583 2052.717041,1100.647583 
	C2058.652100,1118.982910 2071.988525,1130.920776 2089.379639,1138.687134 
	C2088.082031,1150.512207 2086.895020,1161.329224 2085.692383,1172.287109 
	C2082.425049,1173.172974 2079.857910,1173.748413 2077.369141,1174.563110 
	C2059.591553,1180.382935 2049.560791,1198.660645 2054.227051,1216.645996 
	C2058.611084,1233.543457 2075.664062,1244.518433 2093.362305,1241.832886 
	C2111.074707,1239.145142 2123.632812,1222.903687 2122.093750,1204.453735 
	C2121.211670,1193.875610 2116.058838,1185.709351 2107.718506,1179.221069 
	C2105.628418,1177.594971 2103.098145,1174.628662 2103.212158,1172.403320 
	C2103.717285,1162.530396 2105.110840,1152.703125 2106.042236,1144.151489 
	C2119.450439,1140.667236 2131.515381,1137.532104 2144.461426,1134.168091 
	C2148.345947,1138.991455 2152.892822,1144.637573 2157.905273,1151.591064 
	C2165.742920,1162.600220 2173.580811,1173.609497 2181.098877,1184.169556 
	C2164.784912,1209.899292 2166.239258,1233.776733 2184.333496,1250.535278 
	C2200.784424,1265.771851 2226.015625,1267.182983 2244.102539,1253.878296 
	C2261.910156,1240.779053 2268.116211,1216.819702 2258.907227,1196.720703 
	C2248.225098,1173.405518 2226.375977,1165.314453 2194.909424,1173.388794 
	C2186.031250,1161.719238 2177.007568,1149.858154 2167.574951,1136.681030 
	C2164.055420,1131.540894 2160.535889,1126.400757 2157.187256,1121.510010 
	C2178.659912,1090.490479 2176.379150,1061.719238 2151.513672,1034.442017 
	C2163.890381,1015.772278 2176.300049,997.665527 2187.987305,979.103699 
	C2192.305176,972.245911 2196.729248,969.320862 2205.369629,969.471863 
	C2224.301514,969.802795 2238.939209,953.437805 2238.572754,934.342712 
	C2238.210205,915.450806 2222.442383,900.131653 2203.714355,900.475952 
	C2184.736572,900.824890 2169.847900,916.197266 2169.610840,935.164246 
	C2169.486084,945.123169 2174.073730,953.003784 2179.990967,961.132080 
	C2165.594238,982.613525 2151.687988,1004.317810 2136.976562,1025.551147 
	C2115.318359,1017.223267 2095.411865,1017.753357 2076.676025,1030.106812 
	C2057.967041,1042.442627 2050.087891,1060.793823 2048.965576,1083.147827 
	C2044.036011,1083.444214 2039.790894,1083.719604 2035.543457,1083.951416 
	C2010.971313,1085.292603 1986.398438,1086.623535 1959.992188,1087.670166 
	C1947.786621,1087.670166 1935.580933,1087.670166 1923.429810,1087.670166 
	C1903.542236,1044.207153 1879.831299,1034.347656 1831.040161,1049.849365 
	C1820.206909,1033.356567 1809.223877,1016.635498 1798.190308,998.487122 
	C1784.557007,976.537720 1770.923706,954.588318 1757.081421,932.302307 
	C1773.013428,917.739685 1782.206787,900.645874 1782.717407,879.441040 
	C1783.237793,857.832275 1774.510498,840.130493 1759.001709,824.896667 
	C1768.503662,811.792786 1777.698120,799.196167 1786.803467,786.535583 
	C1798.834839,769.806519 1810.796387,753.027283 1823.813354,735.486633 
	C1829.793457,727.295776 1835.773560,719.104858 1842.203247,710.298035 
	C1845.119995,710.802124 1848.573120,711.398865 1853.167969,712.866577 
	C1855.485840,713.227295 1857.803833,713.588013 1861.147827,714.500305 
	C1862.665161,714.653870 1864.182373,714.807434 1867.524658,715.465210 
	C1873.167358,715.207336 1878.810059,714.949463 1885.475464,714.859253 
	C1886.809570,714.522339 1888.143555,714.185425 1891.043335,713.873352 
	C1911.331665,707.672241 1928.555054,697.215942 1939.494141,677.578247 
	C1952.490234,683.624146 1964.799561,689.160217 1976.873291,695.170044 
	C1978.713867,696.086304 1980.111206,699.061584 1980.576538,701.318909 
	C1981.432983,705.472046 1981.444214,709.799377 1981.645142,715.681641 
	C1986.432617,761.658691 2048.357178,795.716553 2095.880859,750.025818 
	C2106.521240,755.757935 2117.298340,761.563538 2129.158691,768.250244 
	C2141.877930,775.476929 2154.446777,782.988159 2167.378174,789.812988 
	C2174.072998,793.346436 2177.755371,796.678467 2177.172119,805.613403 
	C2176.124756,821.654724 2187.622070,834.750732 2203.481445,838.710876 
	C2218.218506,842.390747 2234.168701,835.332153 2241.684326,821.804810 
	C2249.239258,808.206604 2246.770752,791.415710 2235.611084,780.496094 
	C2224.287354,769.415771 2207.964844,767.237244 2194.247559,775.067871 
	C2191.401123,776.692749 2188.731934,778.628845 2185.638428,780.644836 
	C2182.334229,778.905090 2179.112061,777.260254 2175.937500,775.528320 
	C2161.363525,767.577209 2146.802734,759.601868 2132.099854,751.829285 
	C2132.099854,751.829285 2132.294678,751.965576 2131.864990,751.005737 
M1813.382690,2157.706787 
	C1822.012695,2134.210449 1830.642822,2110.713867 1839.086792,2087.723877 
	C1861.142578,2085.882080 1989.399658,2086.678467 1997.041138,2088.644287 
	C2005.335327,2111.871582 2013.668579,2135.208008 2022.117554,2158.868652 
	C2012.559937,2163.804443 2001.313354,2160.993896 1993.124023,2166.335449 
	C1993.124023,2178.646729 1993.124023,2190.130371 1993.124023,2201.475830 
	C2033.118042,2201.475830 2072.306396,2201.475830 2111.917969,2201.475830 
	C2111.917969,2189.384277 2111.917969,2177.842041 2111.917969,2165.353516 
	C2104.981689,2164.229248 2098.153320,2162.256836 2091.326172,2162.260986 
	C2084.562744,2162.264893 2081.913330,2158.990234 2079.875488,2153.511475 
	C2071.551758,2131.134033 2063.116699,2108.798096 2054.632568,2086.480713 
	C2026.976685,2013.733765 1999.285156,1941.000366 1971.599609,1868.264771 
	C1962.653320,1844.760864 1953.682739,1821.266357 1944.452759,1797.058472 
	C1931.890503,1797.058472 1919.619019,1796.966064 1907.349609,1797.081787 
	C1891.630737,1797.230103 1894.426270,1795.020996 1888.844727,1809.251099 
	C1887.632690,1812.341431 1886.089722,1815.302490 1884.892456,1818.397827 
	C1862.176025,1877.127930 1839.455933,1935.856689 1816.804321,1994.611816 
	C1796.311890,2047.766235 1775.843262,2100.930176 1755.540894,2154.157227 
	C1753.489136,2159.536377 1750.642944,2161.903320 1744.685181,2162.205078 
	C1737.253174,2162.580811 1729.894165,2164.399658 1723.050293,2165.507324 
	C1723.050293,2178.486572 1723.050293,2189.991211 1723.050293,2201.538086 
	C1762.970459,2201.538086 1802.159424,2201.538086 1841.697510,2201.538086 
	C1841.697510,2189.278564 1841.697510,2177.513916 1841.697510,2165.491699 
	C1839.255493,2164.899902 1837.357910,2164.397949 1835.441406,2163.983154 
	C1828.012451,2162.376465 1820.577637,2160.797363 1813.382690,2157.706787 
M345.223969,1919.734863 
	C329.769501,1879.185181 314.315063,1838.635620 298.494690,1797.125854 
	C282.644440,1797.125854 266.721191,1797.115601 250.797989,1797.132935 
	C246.905762,1797.137207 246.365219,1800.062378 245.256912,1803.002441 
	C236.485779,1826.269897 227.576996,1849.486206 218.588440,1872.670776 
	C197.736984,1926.453979 176.825150,1980.213867 155.922089,2033.977051 
	C140.553680,2073.505371 125.015816,2112.968994 109.923470,2152.602295 
	C107.468483,2159.049072 104.595024,2162.274414 97.196228,2162.266113 
	C90.384254,2162.258301 83.569916,2164.327637 76.886383,2165.459961 
	C76.886383,2178.047119 76.886383,2189.570068 76.886383,2201.357910 
	C116.891388,2201.357910 156.328094,2201.357910 195.861481,2201.357910 
	C195.861481,2189.133057 195.861481,2177.583984 195.861481,2165.374756 
	C186.023193,2163.400146 176.502777,2161.489258 166.508438,2159.483398 
	C175.093674,2136.219482 183.387238,2114.182129 191.291107,2092.005615 
	C193.148758,2086.793701 196.839935,2087.097656 200.837936,2087.097168 
	C248.163055,2087.091553 295.488861,2087.215820 342.812469,2086.946777 
	C349.064270,2086.911133 351.753967,2089.468262 353.596497,2094.830322 
	C357.258026,2105.486084 361.426971,2115.967041 365.136169,2126.607178 
	C368.909851,2137.432373 372.382721,2148.362061 376.172699,2159.806152 
	C366.361603,2161.686768 357.351959,2163.414062 348.330811,2165.143311 
	C348.330811,2177.799805 348.330811,2189.585693 348.330811,2201.473145 
	C387.840973,2201.473145 426.669922,2201.473145 465.921387,2201.473145 
	C465.921387,2189.375244 465.921387,2177.830811 465.921387,2165.349365 
	C458.947479,2164.221191 452.153351,2162.578857 445.286041,2162.172119 
	C439.117432,2161.806641 436.085846,2159.600586 433.847656,2153.535156 
	C421.350128,2119.668945 408.241028,2086.028809 395.408478,2052.285645 
	C378.799469,2008.612305 362.253876,1964.914795 345.223969,1919.734863 
M1304.999268,2065.095703 
	C1325.574341,2065.095703 1346.149414,2065.095703 1367.683105,2065.095703 
	C1367.683105,2049.598145 1367.506836,2035.349365 1367.724731,2021.106567 
	C1368.045044,2000.184814 1363.735352,1980.175537 1355.412231,1961.154053 
	C1343.612061,1934.186157 1324.715698,1914.002808 1296.800781,1903.219116 
	C1279.150391,1896.400635 1260.709473,1894.973633 1241.930176,1894.937378 
	C1213.760376,1894.883179 1189.115356,1903.851440 1167.515991,1921.724487 
	C1140.080200,1944.427490 1122.933960,1973.465088 1116.367920,2008.220825 
	C1111.859131,2032.086548 1110.897583,2056.308838 1114.217407,2080.628174 
	C1116.883301,2100.158203 1121.163208,2119.112305 1130.371948,2136.646729 
	C1148.828735,2171.790527 1176.455078,2195.503418 1215.889160,2203.970703 
	C1233.525879,2207.757568 1251.362305,2208.584961 1269.410034,2207.175781 
	C1292.921509,2205.340088 1315.281860,2199.930664 1335.811401,2188.058594 
	C1344.638916,2182.953613 1353.523438,2177.821289 1360.002686,2169.498291 
	C1353.847168,2159.154785 1348.169434,2149.384033 1342.258057,2139.757080 
	C1337.849243,2132.576660 1336.602783,2132.607910 1329.871338,2137.381348 
	C1323.654297,2141.790039 1317.395508,2146.268799 1310.681885,2149.822754 
	C1292.344849,2159.530273 1272.407593,2163.045166 1251.893188,2162.947266 
	C1233.740723,2162.860840 1217.209351,2157.647217 1203.559082,2144.998047 
	C1188.598267,2131.134521 1180.832764,2113.440918 1176.311646,2094.020264 
	C1174.139160,2084.688965 1172.156372,2075.324951 1174.874634,2065.095459 
	C1217.761475,2065.095459 1260.380249,2065.095459 1304.999268,2065.095703 
M560.348328,2037.512573 
	C561.378418,2024.280884 562.679565,2011.073853 566.595215,1998.322632 
	C571.399902,1982.676392 577.759705,1967.819092 590.068237,1956.370117 
	C614.932129,1933.242676 665.040710,1934.988770 691.731262,1957.547729 
	C693.821045,1959.313965 695.347778,1962.236328 696.169434,1964.917603 
	C698.299927,1971.869873 699.863953,1978.994751 701.704407,1986.037598 
	C703.607544,1993.320801 705.570068,2000.588623 707.426941,2007.563843 
	C723.499939,2007.563843 738.395996,2007.563843 753.408875,2007.563843 
	C753.773682,2006.253052 754.271545,2005.334717 754.244934,2004.431885 
	C753.637817,1983.841919 753.110840,1963.247437 752.145020,1942.673584 
	C752.025024,1940.117188 749.969849,1937.237549 748.046814,1935.245972 
	C733.895203,1920.589355 716.519409,1911.036621 697.630676,1903.927246 
	C674.072388,1895.060303 649.510437,1894.220703 624.833069,1895.160400 
	C600.750427,1896.077515 578.048523,1902.464600 558.484619,1916.843262 
	C528.586426,1938.817017 513.089478,1969.664795 505.532288,2005.339355 
	C501.690948,2023.472900 502.801697,2041.700317 502.223694,2059.937012 
	C501.691589,2076.725098 504.049408,2093.084717 508.362457,2109.157471 
	C515.558594,2135.974609 528.358459,2159.653564 549.311768,2178.361084 
	C569.215759,2196.131836 593.058838,2204.004395 619.255310,2206.726074 
	C653.949158,2210.330566 686.221680,2204.564941 714.970093,2183.993896 
	C733.163574,2170.975586 748.381958,2155.298584 754.759277,2133.090576 
	C757.268127,2124.353760 759.865601,2115.329834 757.220459,2105.644531 
	C739.549133,2105.644531 722.348938,2105.644531 704.880920,2105.644531 
	C703.246948,2131.717285 688.025452,2147.153320 666.117493,2157.169434 
	C653.429626,2162.969971 639.995544,2163.719971 626.144226,2162.130615 
	C607.174561,2159.953613 591.757141,2151.646240 580.850647,2136.229248 
	C573.367310,2125.651123 568.903809,2113.434082 565.578674,2100.777344 
	C560.270813,2080.573975 560.115662,2060.035156 560.348328,2037.512573 
M871.674866,2001.016357 
	C875.837708,1990.928711 879.347839,1980.501953 884.358765,1970.854736 
	C888.796509,1962.311157 895.482849,1955.228027 903.915100,1950.046387 
	C930.715698,1933.577271 973.531677,1937.856323 997.014771,1956.942627 
	C1000.004456,1959.372559 1001.607971,1961.992310 1002.490906,1965.886353 
	C1005.628601,1979.725098 1009.396851,1993.420654 1012.966431,2007.326904 
	C1028.974243,2007.326904 1044.406494,2007.326904 1060.921631,2007.326904 
	C1059.811646,1985.054932 1058.868774,1963.522095 1057.493896,1942.016846 
	C1057.330322,1939.455688 1055.281494,1936.559204 1053.306763,1934.641724 
	C1037.280273,1919.080811 1018.249756,1908.686157 997.024902,1901.881104 
	C975.387634,1894.943726 953.158081,1894.276611 930.844604,1895.186523 
	C908.977478,1896.078247 888.106873,1901.304443 869.515137,1913.394043 
	C836.938538,1934.577271 819.881287,1965.988159 811.727844,2002.917847 
	C807.551147,2021.835693 807.171387,2041.140869 807.681030,2060.433838 
	C808.234680,2081.390869 810.280945,2102.166748 817.860657,2121.936523 
	C827.664856,2147.508057 841.808838,2170.006592 864.785767,2185.958008 
	C882.696899,2198.392822 902.792542,2204.349121 924.316406,2206.703125 
	C956.738342,2210.248535 987.332092,2205.453369 1015.137207,2187.719482 
	C1034.258545,2175.523926 1050.165527,2160.156982 1058.663330,2138.529053 
	C1062.770386,2128.075928 1065.446167,2117.272217 1062.713379,2105.516357 
	C1045.321899,2105.516357 1028.432617,2105.516357 1011.240906,2105.516357 
	C1010.671509,2107.756104 1009.998779,2109.612793 1009.744263,2111.525146 
	C1006.982849,2132.274170 994.183289,2145.312988 976.715759,2154.858154 
	C960.775940,2163.568359 943.680237,2164.593994 926.395935,2161.397461 
	C913.147766,2158.947021 900.939270,2153.337158 891.939270,2142.778076 
	C879.816833,2128.555420 873.625366,2111.610107 869.554504,2093.541016 
	C865.548279,2075.758545 866.782410,2057.832275 866.252014,2039.918091 
	C865.873596,2027.139404 868.674927,2014.915039 871.674866,2001.016357 
M2179.353760,2158.910400 
	C2167.052002,2161.050049 2154.490479,2161.987793 2143.019531,2165.874023 
	C2143.019531,2178.355225 2143.019531,2189.876709 2143.019531,2201.543945 
	C2192.244385,2201.543945 2240.778564,2201.543945 2289.746338,2201.543945 
	C2289.746338,2189.269531 2289.746338,2177.474854 2289.746338,2164.966553 
	C2275.107178,2162.361328 2260.898438,2159.833008 2246.626465,2157.293213 
	C2246.626465,2051.787598 2246.626465,1947.176025 2246.626465,1841.783081 
	C2261.215088,1839.038696 2275.698730,1836.314209 2289.645020,1833.690674 
	C2289.645020,1820.861328 2289.645020,1809.363281 2289.645020,1797.653564 
	C2240.414307,1797.653564 2191.878906,1797.653564 2142.988281,1797.653564 
	C2142.988281,1809.989502 2142.988281,1821.736572 2142.988281,1833.703247 
	C2158.175049,1836.475830 2172.765625,1839.139526 2187.661621,1841.859009 
	C2187.661621,1845.787476 2187.661621,1848.770264 2187.661621,1851.753052 
	C2187.661621,1950.085327 2187.661621,2048.417725 2187.660645,2146.750000 
	C2187.660645,2148.416504 2187.489746,2150.101562 2187.676270,2151.746338 
	C2188.246826,2156.780029 2184.992920,2157.978027 2179.353760,2158.910400 
M1433.054932,1768.010742 
	C1425.816650,1768.010742 1418.578247,1768.010742 1410.972412,1768.010742 
	C1410.972412,1780.835327 1410.972412,1792.607666 1410.972412,1804.927124 
	C1426.045898,1807.703247 1440.602539,1810.384277 1455.031616,1813.041748 
	C1455.031616,1928.394165 1455.031616,2042.496094 1455.031616,2157.195312 
	C1440.014771,2159.899170 1425.467896,2162.518555 1410.344238,2165.241699 
	C1410.467773,2178.021484 1409.920410,2189.807373 1410.708130,2201.513184 
	C1460.373169,2201.513184 1508.889771,2201.513184 1557.668457,2201.513184 
	C1557.668457,2189.228271 1557.668457,2177.465088 1557.668457,2165.075439 
	C1542.895630,2162.401855 1528.655396,2159.824463 1513.630371,2157.105225 
	C1513.630371,2027.265991 1513.630371,1898.178589 1513.630371,1768.010742 
	C1486.795898,1768.010742 1460.916138,1768.010742 1433.054932,1768.010742 
M1625.158203,2144.017578 
	C1620.926270,2144.017578 1616.694336,2144.017578 1612.356079,2144.017578 
	C1612.356079,2163.898682 1612.356079,2182.646484 1612.356079,2201.458008 
	C1631.876221,2201.458008 1650.696411,2201.458008 1669.636963,2201.458008 
	C1669.636963,2182.140381 1669.636963,2163.393555 1669.636963,2144.017578 
	C1655.005615,2144.017578 1641.067383,2144.017578 1625.158203,2144.017578 
z"/>
<path fill="#4B95D5" opacity="1.000000" stroke="none" 
	d="
M1813.263794,2158.457520 
	C1820.577637,2160.797363 1828.012451,2162.376465 1835.441406,2163.983154 
	C1837.357910,2164.397949 1839.255493,2164.899902 1841.697510,2165.491699 
	C1841.697510,2177.513916 1841.697510,2189.278564 1841.697510,2201.538086 
	C1802.159424,2201.538086 1762.970459,2201.538086 1723.050293,2201.538086 
	C1723.050293,2189.991211 1723.050293,2178.486572 1723.050293,2165.507324 
	C1729.894165,2164.399658 1737.253174,2162.580811 1744.685181,2162.205078 
	C1750.642944,2161.903320 1753.489136,2159.536377 1755.540894,2154.157227 
	C1775.843262,2100.930176 1796.311890,2047.766235 1816.804321,1994.611816 
	C1839.455933,1935.856689 1862.176025,1877.127930 1884.892456,1818.397827 
	C1886.089722,1815.302490 1887.632690,1812.341431 1888.844727,1809.251099 
	C1894.426270,1795.020996 1891.630737,1797.230103 1907.349609,1797.081787 
	C1919.619019,1796.966064 1931.890503,1797.058472 1944.452759,1797.058472 
	C1953.682739,1821.266357 1962.653320,1844.760864 1971.599609,1868.264771 
	C1999.285156,1941.000366 2026.976685,2013.733765 2054.632568,2086.480713 
	C2063.116699,2108.798096 2071.551758,2131.134033 2079.875488,2153.511475 
	C2081.913330,2158.990234 2084.562744,2162.264893 2091.326172,2162.260986 
	C2098.153320,2162.256836 2104.981689,2164.229248 2111.917969,2165.353516 
	C2111.917969,2177.842041 2111.917969,2189.384277 2111.917969,2201.475830 
	C2072.306396,2201.475830 2033.118042,2201.475830 1993.124023,2201.475830 
	C1993.124023,2190.130371 1993.124023,2178.646729 1993.124023,2166.335449 
	C2001.313354,2160.993896 2012.559937,2163.804443 2022.117554,2158.868652 
	C2013.668579,2135.208008 2005.335327,2111.871582 1997.041138,2088.644287 
	C1989.399658,2086.678467 1861.142578,2085.882080 1839.086792,2087.723877 
	C1830.642822,2110.713867 1822.012695,2134.210449 1813.263794,2158.457520 
M1903.000000,2040.016602 
	C1928.151245,2040.016602 1953.302490,2040.016602 1979.554565,2040.016602 
	C1959.227905,1983.922363 1939.395020,1929.190918 1919.562256,1874.459473 
	C1918.926147,1874.357056 1918.290161,1874.254639 1917.654053,1874.152100 
	C1897.443726,1928.975342 1877.233521,1983.798462 1856.509033,2040.016602 
	C1872.534546,2040.016602 1886.767456,2040.016602 1903.000000,2040.016602 
z"/>
<path fill="#4B95D5" opacity="1.000000" stroke="none" 
	d="
M345.452484,1920.481201 
	C362.253876,1964.914795 378.799469,2008.612305 395.408478,2052.285645 
	C408.241028,2086.028809 421.350128,2119.668945 433.847656,2153.535156 
	C436.085846,2159.600586 439.117432,2161.806641 445.286041,2162.172119 
	C452.153351,2162.578857 458.947479,2164.221191 465.921387,2165.349365 
	C465.921387,2177.830811 465.921387,2189.375244 465.921387,2201.473145 
	C426.669922,2201.473145 387.840973,2201.473145 348.330811,2201.473145 
	C348.330811,2189.585693 348.330811,2177.799805 348.330811,2165.143311 
	C357.351959,2163.414062 366.361603,2161.686768 376.172699,2159.806152 
	C372.382721,2148.362061 368.909851,2137.432373 365.136169,2126.607178 
	C361.426971,2115.967041 357.258026,2105.486084 353.596497,2094.830322 
	C351.753967,2089.468262 349.064270,2086.911133 342.812469,2086.946777 
	C295.488861,2087.215820 248.163055,2087.091553 200.837936,2087.097168 
	C196.839935,2087.097656 193.148758,2086.793701 191.291107,2092.005615 
	C183.387238,2114.182129 175.093674,2136.219482 166.508438,2159.483398 
	C176.502777,2161.489258 186.023193,2163.400146 195.861481,2165.374756 
	C195.861481,2177.583984 195.861481,2189.133057 195.861481,2201.357910 
	C156.328094,2201.357910 116.891388,2201.357910 76.886383,2201.357910 
	C76.886383,2189.570068 76.886383,2178.047119 76.886383,2165.459961 
	C83.569916,2164.327637 90.384254,2162.258301 97.196228,2162.266113 
	C104.595024,2162.274414 107.468483,2159.049072 109.923470,2152.602295 
	C125.015816,2112.968994 140.553680,2073.505371 155.922089,2033.977051 
	C176.825150,1980.213867 197.736984,1926.453979 218.588440,1872.670776 
	C227.576996,1849.486206 236.485779,1826.269897 245.256912,1803.002441 
	C246.365219,1800.062378 246.905762,1797.137207 250.797989,1797.132935 
	C266.721191,1797.115601 282.644440,1797.125854 298.494690,1797.125854 
	C314.315063,1838.635620 329.769501,1879.185181 345.452484,1920.481201 
M257.026154,1914.001831 
	C241.750656,1955.511719 226.475159,1997.021484 210.851105,2039.478516 
	C252.119522,2039.478516 291.908844,2039.478516 333.290741,2039.478516 
	C313.245850,1984.097534 293.425415,1929.336548 273.604950,1874.575562 
	C272.841919,1874.587769 272.078888,1874.599976 271.315857,1874.612183 
	C266.789856,1887.276367 262.263824,1899.940430 257.026154,1914.001831 
z"/>
<path fill="#4B94D4" opacity="1.000000" stroke="none" 
	d="
M1303.999146,2065.095703 
	C1260.380249,2065.095459 1217.761475,2065.095459 1174.874634,2065.095459 
	C1172.156372,2075.324951 1174.139160,2084.688965 1176.311646,2094.020264 
	C1180.832764,2113.440918 1188.598267,2131.134521 1203.559082,2144.998047 
	C1217.209351,2157.647217 1233.740723,2162.860840 1251.893188,2162.947266 
	C1272.407593,2163.045166 1292.344849,2159.530273 1310.681885,2149.822754 
	C1317.395508,2146.268799 1323.654297,2141.790039 1329.871338,2137.381348 
	C1336.602783,2132.607910 1337.849243,2132.576660 1342.258057,2139.757080 
	C1348.169434,2149.384033 1353.847168,2159.154785 1360.002686,2169.498291 
	C1353.523438,2177.821289 1344.638916,2182.953613 1335.811401,2188.058594 
	C1315.281860,2199.930664 1292.921509,2205.340088 1269.410034,2207.175781 
	C1251.362305,2208.584961 1233.525879,2207.757568 1215.889160,2203.970703 
	C1176.455078,2195.503418 1148.828735,2171.790527 1130.371948,2136.646729 
	C1121.163208,2119.112305 1116.883301,2100.158203 1114.217407,2080.628174 
	C1110.897583,2056.308838 1111.859131,2032.086548 1116.367920,2008.220825 
	C1122.933960,1973.465088 1140.080200,1944.427490 1167.515991,1921.724487 
	C1189.115356,1903.851440 1213.760376,1894.883179 1241.930176,1894.937378 
	C1260.709473,1894.973633 1279.150391,1896.400635 1296.800781,1903.219116 
	C1324.715698,1914.002808 1343.612061,1934.186157 1355.412231,1961.154053 
	C1363.735352,1980.175537 1368.045044,2000.184814 1367.724731,2021.106567 
	C1367.506836,2035.349365 1367.683105,2049.598145 1367.683105,2065.095703 
	C1346.149414,2065.095703 1325.574341,2065.095703 1303.999146,2065.095703 
M1218.027954,1946.471436 
	C1190.616333,1962.960938 1179.812866,1989.019165 1175.177246,2019.055176 
	C1190.638550,2021.118896 1302.611450,2020.387451 1309.230713,2018.333496 
	C1311.119873,2006.463135 1308.276367,1995.115967 1304.838257,1984.039673 
	C1301.149536,1972.156128 1294.952637,1961.307373 1285.020264,1953.609131 
	C1264.888672,1938.005737 1242.804321,1935.558716 1218.027954,1946.471436 
z"/>
<path fill="#48689F" opacity="1.000000" stroke="none" 
	d="
M1986.073120,1102.265991 
	C1977.126343,1102.884521 1968.183472,1103.568604 1959.231812,1104.105103 
	C1947.975220,1104.779907 1936.711304,1105.334106 1924.748047,1105.978149 
	C1922.090698,1126.481567 1913.846436,1143.361816 1896.293701,1154.451660 
	C1879.087891,1165.322388 1860.729126,1166.510742 1841.423706,1160.045044 
	C1839.393311,1161.940918 1837.352783,1163.609497 1835.587158,1165.530518 
	C1809.218262,1194.220093 1782.957031,1223.008911 1756.468384,1251.587158 
	C1752.420654,1255.954224 1751.303345,1259.576172 1753.395020,1265.614014 
	C1761.381958,1288.667603 1752.252563,1312.502441 1731.768433,1324.229614 
	C1711.272461,1335.963745 1686.210327,1331.549438 1670.128540,1313.353760 
	C1668.813843,1311.866333 1667.606689,1310.283936 1665.619751,1307.852539 
	C1654.796509,1312.247437 1643.842407,1316.695312 1632.467651,1321.313965 
	C1634.230957,1338.915039 1631.548584,1354.928223 1620.310913,1368.677368 
	C1609.326538,1382.116455 1594.728516,1388.406982 1576.891602,1389.754883 
	C1576.103882,1412.403198 1575.344238,1434.245239 1574.552734,1457.004517 
	C1588.130981,1462.039795 1598.992065,1470.270386 1603.549316,1484.752686 
	C1606.345947,1493.639404 1606.065552,1502.470215 1602.843018,1511.211670 
	C1596.408447,1528.666748 1578.740723,1539.700073 1560.322021,1537.759888 
	C1541.856445,1535.814819 1526.608765,1521.178955 1524.150146,1503.039185 
	C1521.270508,1481.793335 1532.140137,1466.115112 1557.452148,1456.181274 
	C1558.309937,1433.862061 1559.186523,1411.057373 1560.069580,1388.083618 
	C1557.047607,1386.619263 1554.707764,1385.468628 1552.354004,1384.347412 
	C1529.388184,1373.408325 1516.809204,1351.909912 1519.773071,1326.775879 
	C1520.660400,1319.251831 1519.009399,1314.615967 1513.129517,1309.782593 
	C1505.203491,1303.266968 1498.444946,1295.331299 1491.512207,1286.945312 
	C1497.462769,1281.759033 1495.638794,1275.696899 1496.520752,1270.464844 
	C1507.455322,1280.555908 1517.788940,1290.364380 1528.731323,1300.750610 
	C1541.586304,1283.446167 1558.008911,1274.843506 1578.927979,1275.680054 
	C1600.315796,1276.535278 1615.545288,1287.858276 1627.207520,1305.250854 
	C1638.393677,1300.723022 1648.794067,1296.513306 1659.389160,1292.224731 
	C1656.633789,1269.258301 1663.433594,1251.004395 1683.147339,1239.512207 
	C1702.849976,1228.026611 1722.096924,1232.196655 1740.389038,1244.412598 
	C1769.020264,1213.216919 1797.117432,1182.603027 1825.375732,1151.813721 
	C1796.448364,1123.178223 1794.958008,1092.911621 1818.114014,1060.863525 
	C1815.764893,1057.250244 1813.520020,1053.964111 1811.443848,1050.574829 
	C1802.797729,1036.461182 1794.202271,1022.316589 1786.178955,1007.822266 
	C1790.593506,1004.945618 1794.417114,1002.430054 1798.240723,999.914551 
	C1809.223877,1016.635498 1820.206909,1033.356567 1831.040161,1049.849365 
	C1879.831299,1034.347656 1903.542236,1044.207153 1923.429810,1087.670166 
	C1935.580933,1087.670166 1947.786621,1087.670166 1961.859985,1087.817993 
	C1968.719116,1087.977051 1973.710693,1087.956177 1978.701538,1088.009644 
	C1982.691040,1088.052490 1986.722290,1087.879395 1990.647827,1088.427124 
	C1992.256226,1088.651733 1994.507690,1090.291992 1994.875977,1091.703613 
	C1995.253052,1093.148071 1994.072998,1095.464966 1992.876099,1096.748779 
	C1990.904419,1098.863770 1988.370239,1100.454468 1986.073120,1102.265991 
z"/>
<path fill="#694E90" opacity="1.000000" stroke="none" 
	d="
M1344.241699,566.050659 
	C1346.107788,562.633606 1348.381836,559.374268 1349.773560,555.773865 
	C1358.579468,532.996033 1367.189941,510.142761 1376.933105,486.638733 
	C1383.227539,485.896362 1388.463379,480.994537 1393.679565,485.994110 
	C1384.678955,510.238495 1375.666504,534.478577 1366.690186,558.731934 
	C1365.330688,562.405151 1364.138916,566.140320 1362.868164,569.850952 
	C1369.493530,574.363953 1375.470215,578.435120 1381.702393,583.822571 
	C1380.272705,587.876038 1379.030029,591.065186 1376.801025,593.246704 
	C1373.258545,596.713989 1369.061646,599.513611 1365.135376,602.587524 
	C1339.221191,622.875671 1313.440918,643.338928 1287.302002,663.333252 
	C1280.047485,668.882507 1273.772095,676.320374 1263.503174,677.514282 
	C1259.937378,667.783386 1256.878174,658.554993 1253.636230,649.220154 
	C1253.040527,648.961609 1252.632812,648.980103 1251.335205,649.389771 
	C1236.581299,650.689392 1222.722900,651.768250 1208.528931,652.873230 
	C1207.649292,656.238342 1207.107178,659.161804 1206.120117,661.926453 
	C1203.337891,669.718811 1201.313599,677.973877 1197.311768,685.104309 
	C1182.488037,711.518311 1160.451782,728.082031 1128.876709,731.919922 
	C1120.030029,731.925659 1112.093384,731.928772 1103.359985,732.023804 
	C1098.693481,731.590210 1094.823730,731.064636 1089.905640,730.396667 
	C1078.066528,757.976685 1066.164551,785.703247 1053.959595,814.135559 
	C1060.268188,818.873901 1066.173706,823.309570 1072.005615,828.493042 
	C1071.430054,834.184753 1068.895996,837.700378 1064.966919,840.765686 
	C1023.336487,873.243958 981.796326,905.838013 940.243469,938.415649 
	C929.309448,946.988037 918.417297,955.613892 907.505920,964.215210 
	C898.263245,950.247864 896.530029,933.965942 893.745911,917.179077 
	C869.426941,914.633850 845.432251,912.122559 820.118896,908.976807 
	C813.290222,904.389038 821.157349,899.751099 818.405762,895.903625 
	C813.430603,891.365356 807.963379,901.269226 802.354370,894.464905 
	C804.676636,893.426086 806.332642,892.685242 807.988647,891.944519 
	C826.548218,893.664917 845.108948,895.372009 863.666809,897.110962 
	C873.851318,898.065308 884.030762,899.073303 894.097534,900.046082 
	C906.900940,825.453430 975.225403,789.778931 1038.111084,807.484924 
	C1050.432129,780.217529 1062.083130,752.426636 1074.287964,724.402649 
	C1071.629639,722.342773 1069.344849,720.572327 1066.608521,717.641479 
	C1068.603027,713.101807 1070.454102,708.977722 1073.595215,706.468872 
	C1089.418091,693.830750 1105.632324,681.684265 1121.604004,669.230347 
	C1139.149536,655.549072 1156.683594,641.848755 1174.019043,627.903809 
	C1183.031616,620.653992 1191.605469,612.859131 1200.377563,605.310425 
	C1202.872925,613.667725 1205.276001,622.054443 1207.919067,630.364807 
	C1208.723022,632.892639 1210.189819,635.209717 1212.104858,637.760681 
	C1212.856812,637.898010 1212.686768,637.916565 1212.686768,637.916565 
	C1213.194458,637.511963 1213.702026,637.107300 1216.017090,636.349731 
	C1224.543091,635.418823 1231.261475,634.840820 1237.979980,634.262817 
	C1238.385132,634.171997 1238.790161,634.081116 1240.477783,634.024109 
	C1244.316284,633.749146 1246.872314,633.440247 1249.428223,633.131348 
	C1252.955200,631.889465 1255.305664,630.280151 1256.239990,625.860962 
	C1261.760620,599.750427 1277.120361,581.394470 1301.663696,571.013611 
	C1306.981689,568.764343 1312.895508,567.924011 1320.207886,566.220093 
	C1329.334473,566.020569 1336.788086,566.035583 1344.241699,566.050659 
z"/>
<path fill="#4B95D5" opacity="1.000000" stroke="none" 
	d="
M560.348145,2038.463867 
	C560.115662,2060.035156 560.270813,2080.573975 565.578674,2100.777344 
	C568.903809,2113.434082 573.367310,2125.651123 580.850647,2136.229248 
	C591.757141,2151.646240 607.174561,2159.953613 626.144226,2162.130615 
	C639.995544,2163.719971 653.429626,2162.969971 666.117493,2157.169434 
	C688.025452,2147.153320 703.246948,2131.717285 704.880920,2105.644531 
	C722.348938,2105.644531 739.549133,2105.644531 757.220459,2105.644531 
	C759.865601,2115.329834 757.268127,2124.353760 754.759277,2133.090576 
	C748.381958,2155.298584 733.163574,2170.975586 714.970093,2183.993896 
	C686.221680,2204.564941 653.949158,2210.330566 619.255310,2206.726074 
	C593.058838,2204.004395 569.215759,2196.131836 549.311768,2178.361084 
	C528.358459,2159.653564 515.558594,2135.974609 508.362457,2109.157471 
	C504.049408,2093.084717 501.691589,2076.725098 502.223694,2059.937012 
	C502.801697,2041.700317 501.690948,2023.472900 505.532288,2005.339355 
	C513.089478,1969.664795 528.586426,1938.817017 558.484619,1916.843262 
	C578.048523,1902.464600 600.750427,1896.077515 624.833069,1895.160400 
	C649.510437,1894.220703 674.072388,1895.060303 697.630676,1903.927246 
	C716.519409,1911.036621 733.895203,1920.589355 748.046814,1935.245972 
	C749.969849,1937.237549 752.025024,1940.117188 752.145020,1942.673584 
	C753.110840,1963.247437 753.637817,1983.841919 754.244934,2004.431885 
	C754.271545,2005.334717 753.773682,2006.253052 753.408875,2007.563843 
	C738.395996,2007.563843 723.499939,2007.563843 707.426941,2007.563843 
	C705.570068,2000.588623 703.607544,1993.320801 701.704407,1986.037598 
	C699.863953,1978.994751 698.299927,1971.869873 696.169434,1964.917603 
	C695.347778,1962.236328 693.821045,1959.313965 691.731262,1957.547729 
	C665.040710,1934.988770 614.932129,1933.242676 590.068237,1956.370117 
	C577.759705,1967.819092 571.399902,1982.676392 566.595215,1998.322632 
	C562.679565,2011.073853 561.378418,2024.280884 560.348145,2038.463867 
z"/>
<path fill="#4B95D5" opacity="1.000000" stroke="none" 
	d="
M871.432190,2001.803223 
	C868.674927,2014.915039 865.873596,2027.139404 866.252014,2039.918091 
	C866.782410,2057.832275 865.548279,2075.758545 869.554504,2093.541016 
	C873.625366,2111.610107 879.816833,2128.555420 891.939270,2142.778076 
	C900.939270,2153.337158 913.147766,2158.947021 926.395935,2161.397461 
	C943.680237,2164.593994 960.775940,2163.568359 976.715759,2154.858154 
	C994.183289,2145.312988 1006.982849,2132.274170 1009.744263,2111.525146 
	C1009.998779,2109.612793 1010.671509,2107.756104 1011.240906,2105.516357 
	C1028.432617,2105.516357 1045.321899,2105.516357 1062.713379,2105.516357 
	C1065.446167,2117.272217 1062.770386,2128.075928 1058.663330,2138.529053 
	C1050.165527,2160.156982 1034.258545,2175.523926 1015.137207,2187.719482 
	C987.332092,2205.453369 956.738342,2210.248535 924.316406,2206.703125 
	C902.792542,2204.349121 882.696899,2198.392822 864.785767,2185.958008 
	C841.808838,2170.006592 827.664856,2147.508057 817.860657,2121.936523 
	C810.280945,2102.166748 808.234680,2081.390869 807.681030,2060.433838 
	C807.171387,2041.140869 807.551147,2021.835693 811.727844,2002.917847 
	C819.881287,1965.988159 836.938538,1934.577271 869.515137,1913.394043 
	C888.106873,1901.304443 908.977478,1896.078247 930.844604,1895.186523 
	C953.158081,1894.276611 975.387634,1894.943726 997.024902,1901.881104 
	C1018.249756,1908.686157 1037.280273,1919.080811 1053.306763,1934.641724 
	C1055.281494,1936.559204 1057.330322,1939.455688 1057.493896,1942.016846 
	C1058.868774,1963.522095 1059.811646,1985.054932 1060.921631,2007.326904 
	C1044.406494,2007.326904 1028.974243,2007.326904 1012.966431,2007.326904 
	C1009.396851,1993.420654 1005.628601,1979.725098 1002.490906,1965.886353 
	C1001.607971,1961.992310 1000.004456,1959.372559 997.014771,1956.942627 
	C973.531677,1937.856323 930.715698,1933.577271 903.915100,1950.046387 
	C895.482849,1955.228027 888.796509,1962.311157 884.358765,1970.854736 
	C879.347839,1980.501953 875.837708,1990.928711 871.432190,2001.803223 
z"/>
<path fill="#4C96D6" opacity="1.000000" stroke="none" 
	d="
M2180.206543,2158.743652 
	C2184.992920,2157.978027 2188.246826,2156.780029 2187.676270,2151.746338 
	C2187.489746,2150.101562 2187.660645,2148.416504 2187.660645,2146.750000 
	C2187.661621,2048.417725 2187.661621,1950.085327 2187.661621,1851.753052 
	C2187.661621,1848.770264 2187.661621,1845.787476 2187.661621,1841.859009 
	C2172.765625,1839.139526 2158.175049,1836.475830 2142.988281,1833.703247 
	C2142.988281,1821.736572 2142.988281,1809.989502 2142.988281,1797.653564 
	C2191.878906,1797.653564 2240.414307,1797.653564 2289.645020,1797.653564 
	C2289.645020,1809.363281 2289.645020,1820.861328 2289.645020,1833.690674 
	C2275.698730,1836.314209 2261.215088,1839.038696 2246.626465,1841.783081 
	C2246.626465,1947.176025 2246.626465,2051.787598 2246.626465,2157.293213 
	C2260.898438,2159.833008 2275.107178,2162.361328 2289.746338,2164.966553 
	C2289.746338,2177.474854 2289.746338,2189.269531 2289.746338,2201.543945 
	C2240.778564,2201.543945 2192.244385,2201.543945 2143.019531,2201.543945 
	C2143.019531,2189.876709 2143.019531,2178.355225 2143.019531,2165.874023 
	C2154.490479,2161.987793 2167.052002,2161.050049 2180.206543,2158.743652 
z"/>
<path fill="#575E9A" opacity="1.000000" stroke="none" 
	d="
M1272.361450,1170.837402 
	C1264.543457,1172.046265 1256.725464,1173.255249 1248.601685,1174.511353 
	C1248.081787,1194.961060 1241.311523,1212.354858 1228.142212,1227.038330 
	C1212.825195,1244.116333 1194.592407,1256.376465 1169.998291,1260.000977 
	C1166.514160,1260.191162 1164.463013,1260.463745 1162.411987,1260.736328 
	C1152.017944,1260.294312 1147.458740,1265.045776 1144.266113,1275.400024 
	C1138.257202,1294.887695 1129.640503,1313.568726 1122.199829,1332.620972 
	C1121.258179,1335.032104 1120.869751,1337.659424 1119.911011,1341.463867 
	C1116.688110,1346.291626 1114.287964,1350.476929 1110.783936,1353.284424 
	C1093.719482,1366.957520 1076.557007,1380.527222 1059.012695,1393.573486 
	C1051.440674,1399.204102 1045.068237,1407.136108 1034.754150,1408.395386 
	C1026.564331,1378.891357 1040.003052,1350.880127 1069.744385,1337.902222 
	C1071.961304,1337.287354 1072.934082,1336.826172 1073.906860,1336.364990 
	C1074.242065,1336.232666 1074.577271,1336.100342 1076.143555,1335.970459 
	C1079.555542,1335.412598 1081.736450,1334.852173 1083.917358,1334.291748 
	C1088.067139,1334.162354 1092.216919,1334.032837 1097.705566,1334.384033 
	C1100.677612,1334.519409 1102.310669,1334.174194 1103.943848,1333.828857 
	C1113.363037,1309.268311 1122.782349,1284.707764 1132.546753,1259.247314 
	C1127.702026,1257.150391 1123.283081,1255.237793 1118.454590,1252.090942 
	C1118.794800,1244.580811 1123.570679,1241.173096 1127.865234,1237.616455 
	C1134.252197,1232.327026 1140.966553,1227.434326 1147.505859,1222.327148 
	C1174.185181,1201.491821 1200.745972,1180.502686 1227.599731,1159.895020 
	C1233.789673,1155.144775 1239.254028,1148.722778 1248.240479,1148.712280 
	C1249.315552,1151.564209 1250.052124,1153.695679 1251.067261,1156.633179 
	C1268.084351,1154.820801 1284.781860,1153.042480 1301.399048,1151.272705 
	C1298.684448,1088.583862 1346.731567,1043.209473 1406.173950,1047.292480 
	C1406.848877,1044.558105 1407.631836,1041.722168 1408.244141,1038.849609 
	C1411.572388,1023.236084 1414.858521,1007.613525 1418.970703,991.996765 
	C1424.479004,992.669678 1429.175659,993.339844 1433.911865,994.816467 
	C1430.411743,1014.093201 1426.871948,1032.563477 1423.309204,1051.154053 
	C1427.663574,1053.048584 1431.016968,1054.406250 1434.284424,1055.945679 
	C1455.110840,1065.757324 1471.217407,1080.311401 1479.695312,1102.264648 
	C1453.451538,1122.713013 1427.808838,1142.823975 1402.126221,1162.883789 
	C1384.827759,1176.395142 1367.309204,1189.632446 1350.259644,1203.449585 
	C1346.060791,1206.852295 1343.307861,1212.038818 1339.890259,1216.405396 
	C1322.218018,1204.922974 1312.561279,1187.539917 1305.150269,1168.023926 
	C1297.587646,1168.702515 1290.415283,1169.346191 1281.691406,1169.917480 
	C1277.547119,1170.176025 1274.954346,1170.506836 1272.361450,1170.837402 
z"/>
<path fill="#4B95D5" opacity="1.000000" stroke="none" 
	d="
M1434.045654,1768.010742 
	C1460.916138,1768.010742 1486.795898,1768.010742 1513.630371,1768.010742 
	C1513.630371,1898.178589 1513.630371,2027.265991 1513.630371,2157.105225 
	C1528.655396,2159.824463 1542.895630,2162.401855 1557.668457,2165.075439 
	C1557.668457,2177.465088 1557.668457,2189.228271 1557.668457,2201.513184 
	C1508.889771,2201.513184 1460.373169,2201.513184 1410.708130,2201.513184 
	C1409.920410,2189.807373 1410.467773,2178.021484 1410.344238,2165.241699 
	C1425.467896,2162.518555 1440.014771,2159.899170 1455.031616,2157.195312 
	C1455.031616,2042.496094 1455.031616,1928.394165 1455.031616,1813.041748 
	C1440.602539,1810.384277 1426.045898,1807.703247 1410.972412,1804.927124 
	C1410.972412,1792.607666 1410.972412,1780.835327 1410.972412,1768.010742 
	C1418.578247,1768.010742 1425.816650,1768.010742 1434.045654,1768.010742 
z"/>
<path fill="#655293" opacity="1.000000" stroke="none" 
	d="
M907.653503,964.909363 
	C918.417297,955.613892 929.309448,946.988037 940.243469,938.415649 
	C981.796326,905.838013 1023.336487,873.243958 1064.966919,840.765686 
	C1068.895996,837.700378 1071.430054,834.184753 1072.686035,828.642334 
	C1075.328857,829.338074 1077.386963,830.442444 1079.081665,831.954285 
	C1129.903931,877.295471 1125.940918,959.856995 1070.993530,1001.195496 
	C1068.425171,1003.127686 1065.865723,1005.071838 1062.976929,1007.256348 
	C1071.213135,1021.939819 1078.986694,1035.798584 1086.131714,1050.035156 
	C1081.928955,1053.808350 1078.354858,1057.203979 1074.780762,1060.599487 
	C1065.882690,1045.803589 1056.984741,1031.007812 1047.899536,1015.900757 
	C988.928345,1033.003906 940.792297,1020.159302 907.653503,964.909363 
z"/>
<path fill="#446CA1" opacity="1.000000" stroke="none" 
	d="
M1986.880859,1102.422852 
	C1988.370239,1100.454468 1990.904419,1098.863770 1992.876099,1096.748779 
	C1994.072998,1095.464966 1995.253052,1093.148071 1994.875977,1091.703613 
	C1994.507690,1090.291992 1992.256226,1088.651733 1990.647827,1088.427124 
	C1986.722290,1087.879395 1982.691040,1088.052490 1978.701538,1088.009644 
	C1973.710693,1087.956177 1968.719116,1087.977051 1962.776855,1087.961792 
	C1986.398438,1086.623535 2010.971313,1085.292603 2035.543457,1083.951416 
	C2039.790894,1083.719604 2044.036011,1083.444214 2048.965576,1083.147827 
	C2050.087891,1060.793823 2057.967041,1042.442627 2076.676025,1030.106812 
	C2095.411865,1017.753357 2115.318359,1017.223267 2136.976562,1025.551147 
	C2151.687988,1004.317810 2165.594238,982.613525 2179.990967,961.132080 
	C2174.073730,953.003784 2169.486084,945.123169 2169.610840,935.164246 
	C2169.847900,916.197266 2184.736572,900.824890 2203.714355,900.475952 
	C2222.442383,900.131653 2238.210205,915.450806 2238.572754,934.342712 
	C2238.939209,953.437805 2224.301514,969.802795 2205.369629,969.471863 
	C2196.729248,969.320862 2192.305176,972.245911 2187.987305,979.103699 
	C2176.300049,997.665527 2163.890381,1015.772278 2151.513672,1034.442017 
	C2176.379150,1061.719238 2178.659912,1090.490479 2157.187256,1121.510010 
	C2160.535889,1126.400757 2164.055420,1131.540894 2167.428955,1137.909180 
	C2164.001953,1142.852661 2160.720703,1146.568237 2157.439697,1150.283691 
	C2152.892822,1144.637573 2148.345947,1138.991455 2144.461426,1134.168091 
	C2131.515381,1137.532104 2119.450439,1140.667236 2106.042236,1144.151489 
	C2105.110840,1152.703125 2103.717285,1162.530396 2103.212158,1172.403320 
	C2103.098145,1174.628662 2105.628418,1177.594971 2107.718506,1179.221069 
	C2116.058838,1185.709351 2121.211670,1193.875610 2122.093750,1204.453735 
	C2123.632812,1222.903687 2111.074707,1239.145142 2093.362305,1241.832886 
	C2075.664062,1244.518433 2058.611084,1233.543457 2054.227051,1216.645996 
	C2049.560791,1198.660645 2059.591553,1180.382935 2077.369141,1174.563110 
	C2079.857910,1173.748413 2082.425049,1173.172974 2085.692383,1172.287109 
	C2086.895020,1161.329224 2088.082031,1150.512207 2089.379639,1138.687134 
	C2071.988525,1130.920776 2058.652100,1118.982910 2052.717041,1100.647583 
	C2044.833984,1100.647583 2037.895020,1100.647583 2030.040283,1100.517944 
	C2029.124512,1100.388306 2028.644165,1100.409424 2028.644165,1100.409424 
	C2014.992310,1101.132812 2001.340454,1101.856323 1986.880859,1102.422852 
z"/>
<path fill="#5C5996" opacity="1.000000" stroke="none" 
	d="
M1433.872437,994.010071 
	C1429.175659,993.339844 1424.479004,992.669678 1418.928711,991.175537 
	C1420.986694,975.081909 1423.897949,959.812195 1426.871094,944.218384 
	C1402.124634,929.790466 1387.228760,909.114624 1384.456177,881.015808 
	C1381.685913,852.940552 1392.773071,829.921692 1413.048462,811.352539 
	C1407.512451,800.128052 1402.403442,789.769287 1397.677979,778.742432 
	C1401.685669,774.548706 1405.309814,771.023071 1408.933960,767.497498 
	C1415.056519,778.786072 1421.179199,790.074646 1426.812866,800.461426 
	C1438.517334,798.198486 1449.462280,794.636719 1460.530640,794.198853 
	C1502.929321,792.521667 1536.919434,822.021301 1542.423584,864.137512 
	C1542.638306,865.780090 1543.013306,867.401733 1544.475342,870.056396 
	C1555.870850,871.391174 1566.107056,871.636169 1576.336426,872.052246 
	C1579.694458,872.188904 1583.034180,872.769409 1587.235229,873.243164 
	C1584.758179,877.745911 1583.108276,880.744995 1580.709351,885.105713 
	C1585.199219,885.462646 1588.348633,885.892212 1591.502563,885.929321 
	C1600.112915,886.030640 1608.728271,885.823547 1617.335815,886.007324 
	C1626.244385,886.197510 1635.146362,886.703308 1643.111084,887.124390 
	C1608.937866,887.177673 1575.704590,887.177673 1542.167114,887.177673 
	C1536.747803,910.226440 1525.633301,928.180237 1506.344116,940.555298 
	C1487.036865,952.941956 1465.917847,954.515808 1443.496094,950.681702 
	C1440.192017,965.557434 1437.032227,979.783752 1433.872437,994.010071 
z"/>
<path fill="#5B5A97" opacity="1.000000" stroke="none" 
	d="
M1075.038330,1061.269897 
	C1078.354858,1057.203979 1081.928955,1053.808350 1086.614014,1050.497925 
	C1094.746582,1062.444336 1101.768066,1074.305786 1108.923218,1086.392700 
	C1113.047607,1084.498901 1116.017456,1083.076416 1119.033447,1081.759766 
	C1141.001099,1072.169800 1163.662842,1070.666138 1186.151001,1078.591431 
	C1219.218628,1090.245361 1240.843872,1112.825562 1247.902100,1147.991699 
	C1239.254028,1148.722778 1233.789673,1155.144775 1227.599731,1159.895020 
	C1200.745972,1180.502686 1174.185181,1201.491821 1147.505859,1222.327148 
	C1140.966553,1227.434326 1134.252197,1232.327026 1127.865234,1237.616455 
	C1123.570679,1241.173096 1118.794800,1244.580811 1117.962891,1251.595093 
	C1086.914917,1238.790771 1069.500488,1214.494873 1064.182251,1181.840942 
	C1059.282349,1151.754761 1068.235840,1125.277100 1088.925415,1102.836060 
	C1090.714233,1100.895752 1092.483765,1098.937866 1094.787598,1096.412231 
	C1088.276489,1084.896973 1081.786255,1073.418701 1075.038330,1061.269897 
z"/>
<path fill="#555E99" opacity="1.000000" stroke="none" 
	d="
M1644.051147,887.071045 
	C1635.146362,886.703308 1626.244385,886.197510 1617.335815,886.007324 
	C1608.728271,885.823547 1600.112915,886.030640 1591.502563,885.929321 
	C1588.348633,885.892212 1585.199219,885.462646 1580.709351,885.105713 
	C1583.108276,880.744995 1584.758179,877.745911 1587.235229,873.243164 
	C1583.034180,872.769409 1579.694458,872.188904 1576.336426,872.052246 
	C1566.107056,871.636169 1555.870850,871.391174 1544.900635,870.751343 
	C1577.112183,870.423035 1610.060303,870.423035 1643.768799,870.423035 
	C1648.407227,846.816040 1659.368896,828.105835 1680.573608,816.819824 
	C1701.421021,805.724060 1722.754028,806.438965 1744.631714,815.675842 
	C1765.608521,787.013000 1786.236694,758.826721 1807.380371,730.936401 
	C1807.895874,733.626160 1807.895874,736.019836 1807.895874,738.284973 
	C1813.322998,737.550537 1818.055542,736.910095 1822.787964,736.269653 
	C1810.796387,753.027283 1798.834839,769.806519 1786.803467,786.535583 
	C1777.698120,799.196167 1768.503662,811.792786 1759.001709,824.896667 
	C1774.510498,840.130493 1783.237793,857.832275 1782.717407,879.441040 
	C1782.206787,900.645874 1773.013428,917.739685 1757.081421,932.302307 
	C1770.923706,954.588318 1784.557007,976.537720 1798.215576,999.200806 
	C1794.417114,1002.430054 1790.593506,1004.945618 1785.649414,1007.419312 
	C1770.510742,985.374939 1756.492554,963.372559 1742.499146,941.409058 
	C1739.053345,942.484741 1736.869385,943.192017 1734.670532,943.848999 
	C1694.362061,955.891296 1655.858154,933.684387 1645.922241,892.699341 
	C1645.458130,890.784546 1644.682007,888.945435 1644.051147,887.071045 
z"/>
<path fill="#6D4B8E" opacity="1.000000" stroke="none" 
	d="
M1200.290527,604.618103 
	C1191.605469,612.859131 1183.031616,620.653992 1174.019043,627.903809 
	C1156.683594,641.848755 1139.149536,655.549072 1121.604004,669.230347 
	C1105.632324,681.684265 1089.418091,693.830750 1073.595215,706.468872 
	C1070.454102,708.977722 1068.603027,713.101807 1066.094238,717.193726 
	C1032.269653,695.777466 1017.101074,654.613831 1028.403687,615.794312 
	C1039.606934,577.316223 1075.371338,549.758423 1115.246948,550.001648 
	C1154.531738,550.241211 1182.984253,568.463135 1200.290527,604.618103 
z"/>
<path fill="#5A5B98" opacity="1.000000" stroke="none" 
	d="
M1823.300659,735.878174 
	C1818.055542,736.910095 1813.322998,737.550537 1807.895874,738.284973 
	C1807.895874,736.019836 1807.895874,733.626160 1807.935547,730.559448 
	C1809.558594,727.456116 1811.142090,725.025696 1813.941650,722.077759 
	C1819.117554,720.312988 1819.810547,717.140503 1819.857544,713.587097 
	C1822.292114,709.655579 1824.726562,705.723999 1828.418945,699.761169 
	C1826.762695,698.815308 1824.523804,697.964111 1822.814697,696.496155 
	C1798.159302,675.319336 1789.734741,641.912598 1801.201416,611.206604 
	C1812.572998,580.754761 1842.496460,560.276672 1874.692627,560.912720 
	C1907.291260,561.556763 1935.932983,581.822632 1946.457275,612.106018 
	C1948.479248,617.924011 1949.192017,624.197083 1949.734009,631.262939 
	C1941.793701,637.631165 1934.544922,642.889771 1927.477295,648.381592 
	C1904.348999,666.353577 1881.313477,684.445129 1858.168457,702.395447 
	C1854.891479,704.937012 1851.877930,707.384460 1852.026245,711.995605 
	C1848.573120,711.398865 1845.119995,710.802124 1842.203247,710.298035 
	C1835.773560,719.104858 1829.793457,727.295776 1823.300659,735.878174 
z"/>
<path fill="#665192" opacity="1.000000" stroke="none" 
	d="
M1408.720215,766.809082 
	C1405.309814,771.023071 1401.685669,774.548706 1397.185059,778.211792 
	C1384.613525,756.860718 1372.918457,735.372192 1361.593018,714.563049 
	C1352.374390,716.212585 1344.612793,718.146973 1336.737549,718.913330 
	C1307.071411,721.800659 1276.237549,704.289307 1264.009766,678.016846 
	C1273.772095,676.320374 1280.047485,668.882507 1287.302002,663.333252 
	C1313.440918,643.338928 1339.221191,622.875671 1365.135376,602.587524 
	C1369.061646,599.513611 1373.258545,596.713989 1376.801025,593.246704 
	C1379.030029,591.065186 1380.272705,587.876038 1382.045410,584.398010 
	C1409.535278,603.462952 1423.261841,653.998047 1390.798584,692.490540 
	C1386.742432,697.300171 1382.426636,701.891113 1377.356445,707.561768 
	C1387.308716,726.270996 1397.907593,746.195801 1408.720215,766.809082 
z"/>
<path fill="#694D8E" opacity="1.000000" stroke="none" 
	d="
M1394.074585,485.364136 
	C1388.463379,480.994537 1383.227539,485.896362 1377.305420,485.987671 
	C1384.693726,464.328857 1392.777954,442.645477 1402.109863,420.432678 
	C1410.415405,419.751190 1415.918701,416.316437 1421.128418,411.903015 
	C1432.011597,402.682922 1442.916260,393.476501 1454.084595,384.607452 
	C1468.649292,373.041443 1483.520996,361.863037 1498.175049,350.408539 
	C1505.569214,344.628815 1505.721680,343.620483 1502.094971,335.660950 
	C1529.071655,328.442871 1556.026978,321.142639 1583.047241,314.091339 
	C1587.313110,312.978088 1588.626465,310.020569 1590.156128,306.600189 
	C1595.338867,295.011993 1603.987061,287.234924 1616.283447,283.737610 
	C1637.083618,277.821686 1658.932251,289.341309 1665.905273,309.856903 
	C1672.785400,330.099213 1663.042969,352.050507 1643.448608,360.455750 
	C1623.468750,369.026367 1600.380249,360.552734 1590.862671,341.098114 
	C1589.416870,338.142670 1588.259766,335.045990 1586.405273,330.690582 
	C1559.505615,337.954407 1532.750732,345.179138 1506.671509,352.221375 
	C1503.699341,363.426056 1501.435181,373.627411 1498.190308,383.506683 
	C1496.515991,388.604767 1499.331543,391.230072 1502.084106,393.733032 
	C1507.613403,398.760925 1513.701782,403.168457 1519.444458,407.969452 
	C1523.213989,411.120850 1526.709106,411.613892 1531.122437,408.835052 
	C1539.531250,403.540649 1548.728271,401.107025 1559.048828,404.112549 
	C1557.463501,411.301056 1553.740845,415.945374 1548.072021,419.408051 
	C1543.895874,421.958893 1540.455322,425.685486 1536.391479,428.454498 
	C1528.550049,433.797516 1520.499756,438.833740 1512.536011,443.997192 
	C1513.290405,437.822113 1514.044922,431.647034 1514.931274,424.391449 
	C1506.745483,418.031158 1497.809570,411.207733 1489.021606,404.198975 
	C1485.669434,401.525543 1483.180542,402.490662 1480.284912,404.958038 
	C1463.050293,419.644440 1443.322632,423.725311 1420.365479,417.954041 
	C1418.589355,421.135132 1416.277466,424.256134 1414.988647,427.754181 
	C1408.009399,446.696045 1401.283081,465.731171 1394.074585,485.364136 
z"/>
<path fill="#6D4B8E" opacity="1.000000" stroke="none" 
	d="
M1501.911377,334.984070 
	C1505.721680,343.620483 1505.569214,344.628815 1498.175049,350.408539 
	C1483.520996,361.863037 1468.649292,373.041443 1454.084595,384.607452 
	C1442.916260,393.476501 1432.011597,402.682922 1421.128418,411.903015 
	C1415.918701,416.316437 1410.415405,419.751190 1402.568726,419.904999 
	C1402.472900,417.017853 1403.165649,414.128998 1404.110718,410.187988 
	C1388.909546,399.123596 1378.298706,384.447693 1375.372314,364.900726 
	C1372.486938,345.629364 1378.195068,328.780487 1389.765869,312.767059 
	C1385.193359,303.406677 1380.555420,293.912170 1376.017090,282.943665 
	C1377.441772,277.467865 1378.600708,273.399872 1380.160522,269.491852 
	C1380.952148,267.508453 1382.466553,265.813507 1383.654297,263.988190 
	C1390.049683,275.961426 1396.445190,287.934631 1403.036987,300.275299 
	C1404.925293,299.653442 1406.554321,299.392151 1407.902832,298.632782 
	C1444.062500,278.271057 1488.767334,295.953461 1501.911377,334.984070 
z"/>
<path fill="#6D4B8E" opacity="1.000000" stroke="none" 
	d="
M807.348999,891.663818 
	C806.332642,892.685242 804.676636,893.426086 802.354370,894.464905 
	C807.963379,901.269226 813.430603,891.365356 818.405762,895.903625 
	C821.157349,899.751099 813.290222,904.389038 819.245850,908.730530 
	C809.103088,908.236206 798.514893,907.353638 787.532715,906.438232 
	C785.847351,909.397888 784.238708,912.253784 782.601562,915.093201 
	C768.508240,939.535278 739.387085,950.561340 712.680054,941.573120 
	C686.542358,932.776367 669.382324,906.037048 672.671814,879.230469 
	C676.235657,850.187866 699.392273,827.956421 727.825684,826.280151 
	C755.945435,824.622437 781.388916,842.796021 788.431885,869.987061 
	C790.002197,876.049622 790.253479,882.453918 792.045776,889.719482 
	C795.236328,890.732727 797.493225,890.727356 799.750061,890.721985 
	C802.069824,890.942383 804.389587,891.162781 807.348999,891.663818 
M800.157776,903.674927 
	C799.418396,903.628601 798.678955,903.582275 797.939514,903.535950 
	C797.927795,903.823059 797.916016,904.110168 797.904297,904.397278 
	C798.646240,904.390137 799.388123,904.383057 800.157776,903.674927 
z"/>
<path fill="#52619B" opacity="1.000000" stroke="none" 
	d="
M1340.265869,1216.949341 
	C1343.307861,1212.038818 1346.060791,1206.852295 1350.259644,1203.449585 
	C1367.309204,1189.632446 1384.827759,1176.395142 1402.126221,1162.883789 
	C1427.808838,1142.823975 1453.451538,1122.713013 1480.182129,1102.775879 
	C1500.565063,1151.227417 1486.526978,1190.052002 1445.464355,1222.726318 
	C1449.186890,1225.640625 1452.555420,1227.834473 1455.394897,1230.576172 
	C1468.981812,1243.696777 1482.425537,1256.965820 1495.920044,1270.182007 
	C1495.638794,1275.696899 1497.462769,1281.759033 1491.128418,1286.365479 
	C1472.802124,1270.114990 1454.946899,1253.626099 1437.712158,1236.512329 
	C1432.300171,1231.138306 1427.697632,1229.942871 1420.275024,1231.996094 
	C1391.583496,1239.932983 1364.943237,1234.650391 1340.265869,1216.949341 
z"/>
<path fill="#52619B" opacity="1.000000" stroke="none" 
	d="
M2076.336426,646.060425 
	C2078.112305,647.925049 2079.647949,650.122986 2081.700684,651.603821 
	C2108.388184,670.856689 2117.183838,698.143188 2106.739502,729.615601 
	C2106.222900,731.172791 2105.882080,732.788269 2105.215088,735.294006 
	C2113.109863,739.938232 2121.047119,744.607483 2129.842773,750.070129 
	C2131.211914,751.260254 2131.743164,751.627563 2132.294678,751.965576 
	C2132.294678,751.965576 2132.099854,751.829285 2132.103027,752.510864 
	C2130.762451,757.918030 2129.418945,762.643616 2128.075195,767.369141 
	C2117.298340,761.563538 2106.521240,755.757935 2095.880859,750.025818 
	C2048.357178,795.716553 1986.432617,761.658691 1982.403809,714.688843 
	C1984.341431,713.110291 1985.664551,712.707825 1986.678711,711.911987 
	C2012.417358,691.711426 2038.040649,671.362244 2063.934814,651.363525 
	C2067.379395,648.703308 2072.169434,647.785278 2076.336426,646.060425 
z"/>
<path fill="#555E99" opacity="1.000000" stroke="none" 
	d="
M2076.842041,645.461792 
	C2072.169434,647.785278 2067.379395,648.703308 2063.934814,651.363525 
	C2038.040649,671.362244 2012.417358,691.711426 1986.678711,711.911987 
	C1985.664551,712.707825 1984.341431,713.110291 1982.485107,713.875122 
	C1981.444214,709.799377 1981.432983,705.472046 1980.576538,701.318909 
	C1980.111206,699.061584 1978.713867,696.086304 1976.873291,695.170044 
	C1964.799561,689.160217 1952.490234,683.624146 1939.494141,677.578247 
	C1928.555054,697.215942 1911.331665,707.672241 1889.749878,713.886414 
	C1887.121826,714.163574 1885.787354,714.427612 1884.452759,714.691650 
	C1878.810059,714.949463 1873.167358,715.207336 1866.079102,715.008423 
	C1863.129639,714.350647 1861.625732,714.149719 1860.121704,713.948730 
	C1857.803833,713.588013 1855.485840,713.227295 1852.597168,712.431091 
	C1851.877930,707.384460 1854.891479,704.937012 1858.168457,702.395447 
	C1881.313477,684.445129 1904.348999,666.353577 1927.477295,648.381592 
	C1934.544922,642.889771 1941.793701,637.631165 1949.647095,632.085571 
	C1950.135620,637.772034 1950.170898,643.659302 1949.656860,649.498230 
	C1949.299927,653.552307 1948.187256,657.539917 1947.360474,661.825256 
	C1957.431396,667.099670 1967.478638,672.607666 1977.751587,677.656555 
	C1984.757080,681.099487 1985.521851,680.747803 1989.237183,674.164429 
	C1995.460693,663.136292 2003.918213,654.373474 2015.203491,648.636169 
	C2019.605103,646.398438 2024.495850,645.122620 2030.345581,643.467773 
	C2032.999146,643.114990 2034.470703,642.703186 2035.942383,642.291321 
	C2041.489624,642.109192 2047.036743,641.927002 2053.754395,642.261108 
	C2056.566162,642.658630 2058.208008,642.539856 2059.849609,642.421082 
	C2065.641113,628.725037 2071.245850,614.945374 2077.322021,601.376648 
	C2079.553467,596.393188 2076.915527,593.405518 2074.599121,589.754700 
	C2064.822510,574.348572 2067.475586,555.365234 2081.192627,544.147461 
	C2084.412109,541.514648 2088.652832,540.130859 2094.054688,538.061768 
	C2101.229492,537.937805 2106.773926,537.924377 2112.318115,537.910889 
	C2121.390137,540.218567 2128.628418,544.942200 2133.281006,553.334778 
	C2137.301270,560.587158 2138.899170,568.253357 2137.483887,576.401001 
	C2134.293701,594.768372 2118.608154,606.337402 2099.066406,604.927917 
	C2097.775391,604.834778 2096.471436,604.915710 2094.225342,604.915710 
	C2088.665527,618.075195 2083.006592,631.469177 2076.842041,645.461792 
z"/>
<path fill="#555E99" opacity="1.000000" stroke="none" 
	d="
M1034.851074,1409.158936 
	C1045.068237,1407.136108 1051.440674,1399.204102 1059.012695,1393.573486 
	C1076.557007,1380.527222 1093.719482,1366.957520 1110.783936,1353.284424 
	C1114.287964,1350.476929 1116.688110,1346.291626 1120.061279,1342.206177 
	C1141.785889,1352.932007 1153.220459,1376.015625 1149.956909,1401.085693 
	C1146.953491,1424.157104 1128.611938,1444.406616 1105.769165,1449.869873 
	C1074.726807,1457.294067 1045.759399,1440.954590 1034.851074,1409.158936 
z"/>
<path fill="#3D71A4" opacity="1.000000" stroke="none" 
	d="
M2157.672363,1150.937378 
	C2160.720703,1146.568237 2164.001953,1142.852661 2167.633301,1138.567139 
	C2177.007568,1149.858154 2186.031250,1161.719238 2194.909424,1173.388794 
	C2226.375977,1165.314453 2248.225098,1173.405518 2258.907227,1196.720703 
	C2268.116211,1216.819702 2261.910156,1240.779053 2244.102539,1253.878296 
	C2226.015625,1267.182983 2200.784424,1265.771851 2184.333496,1250.535278 
	C2166.239258,1233.776733 2164.784912,1209.899292 2181.098877,1184.169556 
	C2173.580811,1173.609497 2165.742920,1162.600220 2157.672363,1150.937378 
z"/>
<path fill="#73458A" opacity="1.000000" stroke="none" 
	d="
M1383.521851,263.313965 
	C1382.466553,265.813507 1380.952148,267.508453 1380.160522,269.491852 
	C1378.600708,273.399872 1377.441772,277.467865 1375.914185,282.264069 
	C1369.187256,270.718140 1362.653076,258.383057 1356.144287,246.034653 
	C1353.818115,241.621643 1351.553345,237.176285 1348.934692,232.116028 
	C1345.119141,232.116028 1341.205933,232.163940 1337.294189,232.108047 
	C1316.167603,231.806183 1299.183228,216.057938 1297.246948,195.005035 
	C1295.291382,173.738998 1309.614136,155.209015 1331.105591,151.201233 
	C1350.923340,147.505554 1371.132568,159.841019 1376.810181,179.663757 
	C1380.600830,192.898621 1378.438721,205.407516 1369.963501,216.532135 
	C1368.165405,218.892426 1366.160156,221.095123 1363.350952,224.441956 
	C1369.959961,237.040268 1376.674683,249.840042 1383.521851,263.313965 
z"/>
<path fill="#48689F" opacity="1.000000" stroke="none" 
	d="
M2128.616943,767.809692 
	C2129.418945,762.643616 2130.762451,757.918030 2132.171631,752.413818 
	C2146.802734,759.601868 2161.363525,767.577209 2175.937500,775.528320 
	C2179.112061,777.260254 2182.334229,778.905090 2185.638428,780.644836 
	C2188.731934,778.628845 2191.401123,776.692749 2194.247559,775.067871 
	C2207.964844,767.237244 2224.287354,769.415771 2235.611084,780.496094 
	C2246.770752,791.415710 2249.239258,808.206604 2241.684326,821.804810 
	C2234.168701,835.332153 2218.218506,842.390747 2203.481445,838.710876 
	C2187.622070,834.750732 2176.124756,821.654724 2177.172119,805.613403 
	C2177.755371,796.678467 2174.072998,793.346436 2167.378174,789.812988 
	C2154.446777,782.988159 2141.877930,775.476929 2128.616943,767.809692 
z"/>
<path fill="#665192" opacity="1.000000" stroke="none" 
	d="
M1512.396729,444.788055 
	C1520.499756,438.833740 1528.550049,433.797516 1536.391479,428.454498 
	C1540.455322,425.685486 1543.895874,421.958893 1548.072021,419.408051 
	C1553.740845,415.945374 1557.463501,411.301056 1559.752197,404.462830 
	C1567.195801,405.627686 1574.070679,407.473358 1579.742432,412.607697 
	C1592.835815,424.460236 1597.207397,442.763489 1590.435181,459.069275 
	C1583.704834,475.274200 1567.708862,485.115784 1549.868896,484.027985 
	C1532.503174,482.969086 1517.868286,470.726044 1513.454834,453.433350 
	C1512.803101,450.879669 1512.644287,448.200195 1512.396729,444.788055 
z"/>
<path fill="#4C96D6" opacity="1.000000" stroke="none" 
	d="
M1626.143677,2144.017578 
	C1641.067383,2144.017578 1655.005615,2144.017578 1669.636963,2144.017578 
	C1669.636963,2163.393555 1669.636963,2182.140381 1669.636963,2201.458008 
	C1650.696411,2201.458008 1631.876221,2201.458008 1612.356079,2201.458008 
	C1612.356079,2182.646484 1612.356079,2163.898682 1612.356079,2144.017578 
	C1616.694336,2144.017578 1620.926270,2144.017578 1626.143677,2144.017578 
z"/>
<path fill="#5C5996" opacity="1.000000" stroke="none" 
	d="
M1343.491455,565.808533 
	C1336.788086,566.035583 1329.334473,566.020569 1320.975830,566.015137 
	C1327.627563,565.871948 1335.184326,565.719177 1343.491455,565.808533 
z"/>
<path fill="#5C5996" opacity="1.000000" stroke="none" 
	d="
M1237.090088,634.154053 
	C1231.261475,634.840820 1224.543091,635.418823 1216.927979,636.005371 
	C1222.754272,635.357727 1229.477173,634.701538 1237.090088,634.154053 
z"/>
<path fill="#48689F" opacity="1.000000" stroke="none" 
	d="
M2111.628906,537.500000 
	C2106.773926,537.924377 2101.229492,537.937805 2094.765137,537.951538 
	C2099.543457,537.664246 2105.241455,537.376648 2111.628906,537.500000 
z"/>
<path fill="#555E99" opacity="1.000000" stroke="none" 
	d="
M1819.311768,713.951050 
	C1819.810547,717.140503 1819.117554,720.312988 1814.469482,721.741943 
	C1815.442627,719.387390 1817.104370,716.851196 1819.311768,713.951050 
z"/>
<path fill="#5C5996" opacity="1.000000" stroke="none" 
	d="
M1248.787842,633.093628 
	C1246.872314,633.440247 1244.316284,633.749146 1241.096680,634.093567 
	C1243.004517,633.771362 1245.576050,633.413635 1248.787842,633.093628 
z"/>
<path fill="#694D8E" opacity="1.000000" stroke="none" 
	d="
M1273.017578,1170.950562 
	C1274.954346,1170.506836 1277.547119,1170.176025 1280.800049,1169.841797 
	C1278.864502,1170.246704 1276.269043,1170.655151 1273.017578,1170.950562 
z"/>
<path fill="#555E99" opacity="1.000000" stroke="none" 
	d="
M1083.228271,1334.208496 
	C1081.736450,1334.852173 1079.555542,1335.412598 1076.684082,1335.976318 
	C1078.175293,1335.361572 1080.357300,1334.743408 1083.228271,1334.208496 
z"/>
<path fill="#694D8E" opacity="1.000000" stroke="none" 
	d="
M1163.025146,1260.898682 
	C1164.463013,1260.463745 1166.514160,1260.191162 1169.192871,1259.927856 
	C1167.759888,1260.311768 1165.699219,1260.686401 1163.025146,1260.898682 
z"/>
<path fill="#694E90" opacity="1.000000" stroke="none" 
	d="
M798.997437,890.514648 
	C797.493225,890.727356 795.236328,890.732727 792.485596,890.399414 
	C794.075989,890.142822 796.160400,890.225098 798.997437,890.514648 
z"/>
<path fill="#555E99" opacity="1.000000" stroke="none" 
	d="
M1103.218018,1333.932983 
	C1102.310669,1334.174194 1100.677612,1334.519409 1098.575439,1334.589600 
	C1099.568359,1334.222046 1101.030273,1334.129517 1103.218018,1333.932983 
z"/>
<path fill="#694D8E" opacity="1.000000" stroke="none" 
	d="
M1884.964111,714.775452 
	C1885.787354,714.427612 1887.121826,714.163574 1888.967041,713.873962 
	C1888.143555,714.185425 1886.809570,714.522339 1884.964111,714.775452 
z"/>
<path fill="#694D8E" opacity="1.000000" stroke="none" 
	d="
M1860.634766,714.224487 
	C1861.625732,714.149719 1863.129639,714.350647 1865.166748,714.756348 
	C1864.182373,714.807434 1862.665161,714.653870 1860.634766,714.224487 
z"/>
<path fill="#52619B" opacity="1.000000" stroke="none" 
	d="
M2059.125977,642.336975 
	C2058.208008,642.539856 2056.566162,642.658630 2054.483398,642.483521 
	C2055.495850,642.210754 2056.948975,642.231812 2059.125977,642.336975 
z"/>
<path fill="#52619B" opacity="1.000000" stroke="none" 
	d="
M2035.247559,642.223511 
	C2034.470703,642.703186 2032.999146,643.114990 2031.068115,643.415283 
	C2031.923340,642.920959 2033.238037,642.538330 2035.247559,642.223511 
z"/>
<path fill="#555E99" opacity="1.000000" stroke="none" 
	d="
M1073.346680,1336.347900 
	C1072.934082,1336.826172 1071.961304,1337.287354 1070.456299,1337.847778 
	C1070.878174,1337.408325 1071.832397,1336.869507 1073.346680,1336.347900 
z"/>
<path fill="#48689F" opacity="1.000000" stroke="none" 
	d="
M2132.079834,751.485657 
	C2131.743164,751.627563 2131.211914,751.260254 2130.334473,750.547974 
	C2130.600342,750.490112 2131.232666,750.747925 2132.079834,751.485657 
z"/>
<path fill="#5C5996" opacity="1.000000" stroke="none" 
	d="
M1212.738037,637.861694 
	C1212.686768,637.916565 1212.856812,637.898010 1212.915527,637.893555 
	C1212.974121,637.889160 1212.789307,637.806763 1212.738037,637.861694 
z"/>
<path fill="#48689F" opacity="1.000000" stroke="none" 
	d="
M2028.812256,1100.527344 
	C2028.644165,1100.409424 2029.124512,1100.388306 2029.202271,1100.376465 
	C2029.280029,1100.364746 2028.980347,1100.645142 2028.812256,1100.527344 
z"/>
<path fill="#010101" opacity="1.000000" stroke="none" 
	d="
M1902.000122,2040.016602 
	C1886.767456,2040.016602 1872.534546,2040.016602 1856.509033,2040.016602 
	C1877.233521,1983.798462 1897.443726,1928.975342 1917.654053,1874.152100 
	C1918.290161,1874.254639 1918.926147,1874.357056 1919.562256,1874.459473 
	C1939.395020,1929.190918 1959.227905,1983.922363 1979.554565,2040.016602 
	C1953.302490,2040.016602 1928.151245,2040.016602 1902.000122,2040.016602 
z"/>
<path fill="#010101" opacity="1.000000" stroke="none" 
	d="
M257.381989,1913.303223 
	C262.263824,1899.940430 266.789856,1887.276367 271.315857,1874.612183 
	C272.078888,1874.599976 272.841919,1874.587769 273.604950,1874.575562 
	C293.425415,1929.336548 313.245850,1984.097534 333.290741,2039.478516 
	C291.908844,2039.478516 252.119522,2039.478516 210.851105,2039.478516 
	C226.475159,1997.021484 241.750656,1955.511719 257.381989,1913.303223 
z"/>
<path fill="#010101" opacity="1.000000" stroke="none" 
	d="
M1218.714600,1946.132324 
	C1242.804321,1935.558716 1264.888672,1938.005737 1285.020264,1953.609131 
	C1294.952637,1961.307373 1301.149536,1972.156128 1304.838257,1984.039673 
	C1308.276367,1995.115967 1311.119873,2006.463135 1309.230713,2018.333496 
	C1302.611450,2020.387451 1190.638550,2021.118896 1175.177246,2019.055176 
	C1179.812866,1989.019165 1190.616333,1962.960938 1218.714600,1946.132324 
z"/>
<path fill="#000001" opacity="1.000000" stroke="none" 
	d="
M1496.520752,1270.464844 
	C1482.425537,1256.965820 1468.981812,1243.696777 1455.394897,1230.576172 
	C1452.555420,1227.834473 1449.186890,1225.640625 1445.464355,1222.726318 
	C1486.526978,1190.052002 1500.565063,1151.227417 1480.765991,1102.416748 
	C1471.217407,1080.311401 1455.110840,1065.757324 1434.284424,1055.945679 
	C1431.016968,1054.406250 1427.663574,1053.048584 1423.309204,1051.154053 
	C1426.871948,1032.563477 1430.411743,1014.093201 1433.911865,994.816467 
	C1437.032227,979.783752 1440.192017,965.557434 1443.496094,950.681702 
	C1465.917847,954.515808 1487.036865,952.941956 1506.344116,940.555298 
	C1525.633301,928.180237 1536.747803,910.226440 1542.167114,887.177673 
	C1575.704590,887.177673 1608.937866,887.177673 1643.111084,887.124390 
	C1644.682007,888.945435 1645.458130,890.784546 1645.922241,892.699341 
	C1655.858154,933.684387 1694.362061,955.891296 1734.670532,943.848999 
	C1736.869385,943.192017 1739.053345,942.484741 1742.499146,941.409058 
	C1756.492554,963.372559 1770.510742,985.374939 1785.058594,1007.780396 
	C1794.202271,1022.316589 1802.797729,1036.461182 1811.443848,1050.574829 
	C1813.520020,1053.964111 1815.764893,1057.250244 1818.114014,1060.863525 
	C1794.958008,1092.911621 1796.448364,1123.178223 1825.375732,1151.813721 
	C1797.117432,1182.603027 1769.020264,1213.216919 1740.389038,1244.412598 
	C1722.096924,1232.196655 1702.849976,1228.026611 1683.147339,1239.512207 
	C1663.433594,1251.004395 1656.633789,1269.258301 1659.389160,1292.224731 
	C1648.794067,1296.513306 1638.393677,1300.723022 1627.207520,1305.250854 
	C1615.545288,1287.858276 1600.315796,1276.535278 1578.927979,1275.680054 
	C1558.008911,1274.843506 1541.586304,1283.446167 1528.731323,1300.750610 
	C1517.788940,1290.364380 1507.455322,1280.555908 1496.520752,1270.464844 
z"/>
<path fill="#000001" opacity="1.000000" stroke="none" 
	d="
M1263.503174,677.514282 
	C1276.237549,704.289307 1307.071411,721.800659 1336.737549,718.913330 
	C1344.612793,718.146973 1352.374390,716.212585 1361.593018,714.563049 
	C1372.918457,735.372192 1384.613525,756.860718 1396.801514,778.879883 
	C1402.403442,789.769287 1407.512451,800.128052 1413.048462,811.352539 
	C1392.773071,829.921692 1381.685913,852.940552 1384.456177,881.015808 
	C1387.228760,909.114624 1402.124634,929.790466 1426.871094,944.218384 
	C1423.897949,959.812195 1420.986694,975.081909 1418.117310,991.172852 
	C1414.858521,1007.613525 1411.572388,1023.236084 1408.244141,1038.849609 
	C1407.631836,1041.722168 1406.848877,1044.558105 1406.173950,1047.292480 
	C1346.731567,1043.209473 1298.684448,1088.583862 1301.399048,1151.272705 
	C1284.781860,1153.042480 1268.084351,1154.820801 1251.067261,1156.633179 
	C1250.052124,1153.695679 1249.315552,1151.564209 1248.240479,1148.712280 
	C1240.843872,1112.825562 1219.218628,1090.245361 1186.151001,1078.591431 
	C1163.662842,1070.666138 1141.001099,1072.169800 1119.033447,1081.759766 
	C1116.017456,1083.076416 1113.047607,1084.498901 1108.923218,1086.392700 
	C1101.768066,1074.305786 1094.746582,1062.444336 1087.242676,1050.120239 
	C1078.986694,1035.798584 1071.213135,1021.939819 1062.976929,1007.256348 
	C1065.865723,1005.071838 1068.425171,1003.127686 1070.993530,1001.195496 
	C1125.940918,959.856995 1129.903931,877.295471 1079.081665,831.954285 
	C1077.386963,830.442444 1075.328857,829.338074 1072.759766,827.894470 
	C1066.173706,823.309570 1060.268188,818.873901 1053.959595,814.135559 
	C1066.164551,785.703247 1078.066528,757.976685 1089.905640,730.396667 
	C1094.823730,731.064636 1098.693481,731.590210 1104.109009,732.291626 
	C1113.698608,732.284119 1121.742676,732.100708 1129.786621,731.917358 
	C1160.451782,728.082031 1182.488037,711.518311 1197.311768,685.104309 
	C1201.313599,677.973877 1203.337891,669.718811 1206.120117,661.926453 
	C1207.107178,659.161804 1207.649292,656.238342 1208.528931,652.873230 
	C1222.722900,651.768250 1236.581299,650.689392 1251.724121,649.505554 
	C1253.008301,649.400635 1253.819092,649.326599 1253.819092,649.326599 
	C1256.878174,658.554993 1259.937378,667.783386 1263.503174,677.514282 
z"/>
<path fill="#73458A" opacity="1.000000" stroke="none" 
	d="
M1128.876709,731.919922 
	C1121.742676,732.100708 1113.698608,732.284119 1104.905640,732.199707 
	C1112.093384,731.928772 1120.030029,731.925659 1128.876709,731.919922 
z"/>
<path fill="#694D8E" opacity="1.000000" stroke="none" 
	d="
M1253.636230,649.220154 
	C1253.819092,649.326599 1253.008301,649.400635 1252.619385,649.284851 
	C1252.632812,648.980103 1253.040527,648.961609 1253.636230,649.220154 
z"/>
<path fill="#694E90" opacity="1.000000" stroke="none" 
	d="
M800.143921,904.025452 
	C799.388123,904.383057 798.646240,904.390137 797.904297,904.397278 
	C797.916016,904.110168 797.927795,903.823059 797.939575,903.535950 
	C798.678955,903.582275 799.418396,903.628601 800.143921,904.025452 
z"/>
</svg>